<svg width="331" height="134" viewBox="0 0 331 134" fill="none" xmlns="http://www.w3.org/2000/svg">
<path d="M0.566956 68.3294L21.6131 2.31311H42.0117L63.1388 68.3294H42.5783L40.069 60.1245H23.4749L20.9655 68.3294H0.566956ZM26.7128 45.0351H36.993L31.9743 26.9277H31.6505L26.7128 45.0351ZM92.3813 69.744C74.4111 69.744 62.3501 55.7863 62.3501 35.3212C62.3501 14.9505 74.573 0.898468 92.2194 0.898468C108.49 0.898468 120.065 11.9326 122.655 29.8513H103.471C102.014 24.8529 97.9666 21.6464 93.1098 21.6464C86.5531 21.6464 82.1011 27.1164 82.1011 35.3212C82.1011 43.4318 86.5531 48.996 92.9479 48.996C98.0476 48.996 102.014 45.6952 103.633 40.5082H122.898C120.875 58.2383 108.733 69.744 92.3813 69.744ZM130.006 68.3294V2.31311H145.872L163.518 30.0399L181.245 2.31311H197.03V68.3294H177.926V53.1456L178.088 39.5651H177.846L168.941 53.8058H158.094L149.19 39.4708L148.948 39.5651L149.109 53.1456V68.3294H130.006Z" fill="#FEFDF8"/>
<path d="M330.806 0.898468H210.03V29.9666H330.806V0.898468Z" fill="#FEFDF8"/>
<path d="M118.123 69.744H0.566895V98.8121H118.123V69.744Z" fill="#FEFDF8"/>
<path d="M163.691 134C144.419 134 131.123 120.709 131.123 101.872C131.123 83.0353 144.419 69.744 163.691 69.744C183.046 69.744 196.343 83.0353 196.343 101.872C196.343 120.709 183.046 134 163.691 134ZM151.656 101.872C151.656 109.442 156.622 114.635 163.691 114.635C170.76 114.635 175.809 109.442 175.809 101.872C175.809 94.3021 170.76 89.1088 163.691 89.1088C156.622 89.1088 151.656 94.3021 151.656 101.872ZM203.844 132.68V71.0643H220.338L239.189 97.6469H239.525L239.357 89.813V71.0643H259.302V132.68H242.808L223.873 105.833H223.62L223.788 113.931V132.68H203.844ZM269.837 132.68V71.0643H312.251V86.8202H289.613V93.95H310.063V109.266H289.613V116.66H313.092V132.68H269.837Z" fill="#FEFDF8"/>
</svg>
