<svg width="376" height="245" viewBox="0 0 376 245" fill="none" xmlns="http://www.w3.org/2000/svg">
<g filter="url(#filter0_di_210_125)">
<g filter="url(#filter1_d_210_125)">
<path d="M122.75 82.6191L141.234 73.5381L144.836 71.7686V120.484L141.499 119.297L122.75 112.626V127.929L119.698 127.237L75.1167 117.135L73.1694 116.693V79.3809L75.1362 78.9521L119.717 69.2236L122.75 68.5615V82.6191Z" stroke="url(#paint0_radial_210_125)" stroke-width="5" shape-rendering="crispEdges"/>
</g>
<path d="M98.6147 15.7612C111.531 15.0794 119.238 15.8166 131.702 19.3354C145.095 23.1167 152.631 26.7942 163.717 35.062C168.476 38.6108 173.676 43.9427 177.623 48.2964C179.611 50.49 181.31 52.4681 182.513 53.8979C183.115 54.6132 183.593 55.1924 183.922 55.5942C184.087 55.7952 184.214 55.9519 184.301 56.0591C184.345 56.1126 184.378 56.1539 184.401 56.1821C184.412 56.1959 184.42 56.2069 184.426 56.2144C184.429 56.2181 184.432 56.221 184.434 56.2231C184.435 56.2242 184.436 56.2254 184.436 56.2261V56.2271C184.431 56.2318 184.329 56.313 182.485 57.7896L184.437 56.2271L185.924 58.0854L184.141 59.6626L172.127 70.2856L170.358 71.8501L168.696 70.1724L168.57 70.0464C168.485 69.9611 168.357 69.8337 168.191 69.6694C167.86 69.3408 167.375 68.8626 166.766 68.27C165.547 67.0842 163.83 65.4412 161.843 63.6138C157.844 59.9356 152.844 55.5969 148.621 52.7144C142.466 48.5136 139.264 46.1215 132.637 43.5796C125.269 40.7532 120.746 40.4078 112.475 39.5532C103.534 38.6294 98.6413 37.9759 90.2339 39.5249C80.7099 41.2797 75.9734 42.5455 67.6558 47.0288C60.963 50.6364 56.8614 54.0076 51.3647 59.3999C45.9121 64.749 42.3453 68.3082 38.4614 74.478C35.221 79.6257 34.8812 82.4135 32.6021 88.7622C30.1658 95.5485 30.361 99.6992 30.2378 107.461C30.1014 116.057 30.44 120.88 32.6616 129.057C34.7328 136.68 36.4758 140.815 40.6265 147.559C45.3637 155.256 48.8994 159.105 55.8999 165.08C62.1887 170.447 66.1177 173.027 73.6304 176.56C81.9822 180.488 87.054 182.014 96.2271 183.313C104.989 184.553 109.964 184.998 118.343 183.336C127.271 181.567 131.862 178.836 139.95 174.004L140.14 173.89C146.942 169.827 150.473 167.116 156.199 161.684C161.618 156.543 164.507 153.61 168.36 147.531C170.409 144.298 172.399 139.701 173.904 135.802C174.648 133.875 175.257 132.158 175.681 130.923C175.893 130.307 176.058 129.812 176.169 129.473C176.225 129.304 176.267 129.173 176.295 129.086C176.309 129.043 176.32 129.01 176.327 128.989C176.33 128.978 176.333 128.97 176.334 128.965C176.335 128.963 176.335 128.961 176.335 128.96V128.959L176.888 127.213H252.596L253.205 127.593L278.013 143.106L309.338 122.191L291.787 105.764L290.546 104.604L291.167 103.024L298.699 83.8677L300.066 80.3901L302.759 82.9819L342.567 121.294L344.678 123.326L342.338 125.091L279.565 172.459L278.168 173.513L276.7 172.562L243.968 151.37H194.272C193.871 152.185 193.319 153.294 192.675 154.54C191.349 157.107 189.596 160.341 187.977 162.788C182.826 170.572 178.994 174.483 172.149 180.676C166.71 185.597 163.332 188.159 157.1 192.083C147.977 197.828 142.27 200.815 131.716 203.864C120.89 206.992 114.228 207.724 102.987 207.444C90.8584 207.141 83.8411 205.626 72.4741 201.738C61.2184 197.888 54.9038 194.769 45.2808 187.815C35.2184 180.544 29.9982 175.332 22.8345 165.298C15.876 155.553 12.6026 149.2 9.20361 137.738C6.2394 127.742 5.37882 121.632 5.51416 111.221C5.66789 99.3979 7.41911 92.6314 11.0161 81.5718C14.328 71.3889 16.5284 65.2804 22.813 56.1938C30.5617 44.9905 36.9059 39.6352 48.2417 32.1899C56.7218 26.6203 62.0855 23.9782 71.7788 20.7612C81.8564 17.4168 88.0113 16.321 98.6147 15.7612Z" stroke="url(#paint1_radial_210_125)" stroke-width="5"/>
<path d="M98.6143 2.729C111.53 2.04722 119.238 2.7844 131.701 6.30322C145.094 10.0845 152.63 13.762 163.717 22.0298C168.475 25.5785 173.675 30.9105 177.622 35.2642C179.611 37.4578 181.31 39.4358 182.513 40.8657C183.114 41.581 183.593 42.1602 183.922 42.562C184.086 42.7629 184.214 42.9196 184.301 43.0269C184.344 43.0804 184.378 43.1217 184.4 43.1499C184.411 43.1637 184.42 43.1746 184.426 43.1821C184.429 43.1859 184.432 43.1888 184.434 43.1909C184.434 43.192 184.435 43.1932 184.436 43.1938V43.1948C184.43 43.1995 184.329 43.2807 182.484 44.7573L184.437 43.1948L185.924 45.0532L184.141 46.6304L172.127 57.2534L170.357 58.8179L168.695 57.1401L168.569 57.0142C168.484 56.9288 168.356 56.8015 168.19 56.6372C167.859 56.3086 167.375 55.8304 166.766 55.2378C165.546 54.0519 163.829 52.4089 161.843 50.5815C157.844 46.9034 152.843 42.5647 148.62 39.6821C142.466 35.4813 139.263 33.0892 132.637 30.5474C125.268 27.721 120.745 27.3755 112.475 26.521C103.534 25.5972 98.6408 24.9437 90.2334 26.4927C80.7095 28.2474 75.9729 29.5132 67.6553 33.9966C60.9625 37.6041 56.8609 40.9754 51.3643 46.3677C45.9116 51.7168 42.3448 55.2759 38.4609 61.4458C35.2205 66.5935 34.8807 69.3812 32.6016 75.73C30.1653 82.5163 30.3605 86.6669 30.2373 94.4292C30.1009 103.025 30.4395 107.848 32.6611 116.025C34.7324 123.648 36.4753 127.783 40.626 134.527C45.3632 142.224 48.8989 146.073 55.8994 152.047C62.1882 157.415 66.1172 159.995 73.6299 163.528C81.9817 167.455 87.0535 168.982 96.2266 170.281C104.988 171.521 109.964 171.965 118.343 170.304C127.271 168.534 131.861 165.804 139.949 160.972L140.14 160.858C146.941 156.795 150.472 154.084 156.198 148.652C161.618 143.511 164.506 140.578 168.359 134.499C170.408 131.266 172.399 126.668 173.903 122.77C174.647 120.843 175.257 119.125 175.681 117.891C175.892 117.275 176.058 116.78 176.169 116.441C176.225 116.272 176.267 116.141 176.295 116.054C176.309 116.011 176.319 115.978 176.326 115.957C176.33 115.946 176.332 115.938 176.334 115.933C176.335 115.931 176.335 115.929 176.335 115.928V115.927L176.888 114.181H252.596L253.204 114.561L278.013 130.074L309.338 109.159L291.786 92.7319L290.546 91.5718L291.167 89.9917L298.698 70.8354L300.065 67.3579L302.759 69.9497L342.566 108.262L344.678 110.293L342.338 112.059L279.564 159.427L278.168 160.481L276.699 159.53L243.968 138.337H194.271C193.871 139.153 193.318 140.262 192.675 141.507C191.349 144.075 189.595 147.309 187.977 149.755C182.825 157.54 178.993 161.451 172.148 167.644C166.71 172.564 163.332 175.127 157.1 179.051C147.976 184.796 142.269 187.783 131.716 190.832C120.89 193.959 114.227 194.692 102.986 194.412C90.8579 194.109 83.8406 192.593 72.4736 188.706C61.2179 184.856 54.9033 181.737 45.2803 174.783C35.2179 167.511 29.9977 162.299 22.834 152.266C15.8755 142.52 12.6021 136.168 9.20312 124.706C6.23891 114.71 5.37833 108.6 5.51367 98.189C5.6674 86.3657 7.41862 79.5991 11.0156 68.5396C14.3275 58.3567 16.5279 52.2482 22.8125 43.1616C30.5612 31.9583 36.9054 26.6029 48.2412 19.1577C56.7213 13.5881 62.085 10.9459 71.7783 7.729C81.8559 4.38453 88.0108 3.28875 98.6143 2.729Z" stroke="url(#paint2_radial_210_125)" stroke-width="5"/>
</g>
<defs>
<filter id="filter0_di_210_125" x="0" y="-2" width="375.522" height="246.999" filterUnits="userSpaceOnUse" color-interpolation-filters="sRGB">
<feFlood flood-opacity="0" result="BackgroundImageFix"/>
<feColorMatrix in="SourceAlpha" type="matrix" values="0 0 0 0 0 0 0 0 0 0 0 0 0 0 0 0 0 0 127 0" result="hardAlpha"/>
<feOffset dx="12" dy="20"/>
<feGaussianBlur stdDeviation="7.5"/>
<feComposite in2="hardAlpha" operator="out"/>
<feColorMatrix type="matrix" values="0 0 0 0 0 0 0 0 0 0 0 0 0 0 0 0 0 0 0.25 0"/>
<feBlend mode="normal" in2="BackgroundImageFix" result="effect1_dropShadow_210_125"/>
<feBlend mode="normal" in="SourceGraphic" in2="effect1_dropShadow_210_125" result="shape"/>
<feColorMatrix in="SourceAlpha" type="matrix" values="0 0 0 0 0 0 0 0 0 0 0 0 0 0 0 0 0 0 127 0" result="hardAlpha"/>
<feOffset dy="-2"/>
<feGaussianBlur stdDeviation="1.5"/>
<feComposite in2="hardAlpha" operator="arithmetic" k2="-1" k3="1"/>
<feColorMatrix type="matrix" values="0 0 0 0 0 0 0 0 0 0 0 0 0 0 0 0 0 0 1 0"/>
<feBlend mode="normal" in2="shape" result="effect2_innerShadow_210_125"/>
</filter>
<filter id="filter1_d_210_125" x="70.6694" y="65.4573" width="89.6996" height="80.6392" filterUnits="userSpaceOnUse" color-interpolation-filters="sRGB">
<feFlood flood-opacity="0" result="BackgroundImageFix"/>
<feColorMatrix in="SourceAlpha" type="matrix" values="0 0 0 0 0 0 0 0 0 0 0 0 0 0 0 0 0 0 127 0" result="hardAlpha"/>
<feOffset dx="13.0326" dy="15.0376"/>
<feComposite in2="hardAlpha" operator="out"/>
<feColorMatrix type="matrix" values="0 0 0 0 0 0 0 0 0 0 0 0 0 0 0 0 0 0 0.25 0"/>
<feBlend mode="normal" in2="BackgroundImageFix" result="effect1_dropShadow_210_125"/>
<feBlend mode="normal" in="SourceGraphic" in2="effect1_dropShadow_210_125" result="shape"/>
</filter>
<radialGradient id="paint0_radial_210_125" cx="0" cy="0" r="1" gradientTransform="matrix(50.6141 36.9134 -46.3158 40.3391 82.8624 81.5236)" gradientUnits="userSpaceOnUse">
<stop stop-color="#FDF5E5"/>
<stop offset="0.735" stop-color="#CEA662"/>
<stop offset="0.96" stop-color="#583C0D"/>
</radialGradient>
<radialGradient id="paint1_radial_210_125" cx="0" cy="0" r="1" gradientTransform="matrix(252.69 129.893 -231.231 141.948 43.9114 52.7192)" gradientUnits="userSpaceOnUse">
<stop stop-color="#FDF5E5"/>
<stop offset="0.735" stop-color="#CEA662"/>
<stop offset="0.96" stop-color="#583C0D"/>
</radialGradient>
<radialGradient id="paint2_radial_210_125" cx="0" cy="0" r="1" gradientTransform="matrix(252.69 129.893 -231.231 141.948 43.9109 39.687)" gradientUnits="userSpaceOnUse">
<stop stop-color="#FDF5E5"/>
<stop offset="0.735" stop-color="#CEA662"/>
<stop offset="0.96" stop-color="#583C0D"/>
</radialGradient>
</defs>
</svg>
