<svg width="235" height="238" viewBox="0 0 235 238" fill="none" xmlns="http://www.w3.org/2000/svg">
<g filter="url(#filter0_di_119_212)">
<mask id="path-1-outside-1_119_212" maskUnits="userSpaceOnUse" x="1.10046" y="-0.478518" width="220" height="220" fill="black">
<rect fill="white" x="1.10046" y="-0.478518" width="220" height="220"/>
<path d="M88.446 18.905C100.957 6.39358 121.242 6.3937 133.754 18.905L201.717 86.8669C214.228 99.3784 214.228 119.664 201.717 132.176L133.754 200.137C121.242 212.649 100.957 212.649 88.446 200.137L20.4841 132.176C7.97259 119.664 7.97259 99.3784 20.4841 86.8669L88.446 18.905ZM106.615 93.4812C103.087 93.2379 99.6531 93.6577 96.3816 95.0095C92.096 96.7805 89.0266 99.7813 87.5124 104.216C86.6743 106.703 86.4444 109.258 86.7282 111.881C87.0257 114.503 87.8235 116.937 89.3376 119.114C91.5277 122.25 94.5701 124.197 98.1931 125.292C101.384 126.252 104.655 126.454 107.968 126.076C109.711 125.873 111.428 125.549 113.118 125.049C113.564 124.913 113.712 124.71 113.699 124.251C113.618 121.899 113.564 119.56 113.497 117.208C113.483 117.113 113.523 116.991 113.321 116.937C113.105 117.018 112.861 117.126 112.618 117.22C110.212 118.153 107.724 118.573 105.155 118.168C102.086 117.668 99.7341 116.099 98.4362 113.192C97.7468 111.651 97.6928 110.015 97.9226 108.352C98.3823 104.986 100.626 102.39 103.938 101.606C106.547 100.998 109.089 101.35 111.522 102.431C111.901 102.594 112.253 102.769 112.632 102.959C112.821 102.567 112.807 102.188 112.834 101.837C113.023 99.8765 113.212 97.9159 113.415 95.9558C113.496 95.1582 113.523 95.1582 112.753 94.8337C110.792 94.0091 108.737 93.6299 106.615 93.4812ZM71.0759 93.5222C68.9941 93.2924 66.9255 93.3602 64.8571 93.5359C62.0181 93.7792 59.246 94.3463 56.5827 95.3738C55.9613 95.617 55.9481 95.6175 55.9616 96.3064C56.0022 98.3072 56.056 100.295 56.1101 102.296C56.1101 102.458 56.0155 102.674 56.2585 102.809C56.7451 102.593 57.2184 102.35 57.7185 102.134C61.0036 100.768 64.4516 100.417 67.9665 100.674C68.8587 100.741 69.7238 100.971 70.5349 101.349C72.2518 102.133 73.0898 103.513 73.279 105.351C73.3466 106.013 73.2926 106.054 72.6443 105.96C69.4404 105.487 66.236 105.527 63.0456 106C60.842 106.324 58.7052 106.906 56.7585 108.028C54.2848 109.448 52.6895 111.529 52.2028 114.382C52.1623 114.638 52.176 114.936 51.8923 115.085V117.518C52.1083 117.68 52.1486 117.924 52.1892 118.167C52.7029 121.29 54.4475 123.467 57.2595 124.845C59.2331 125.819 61.3554 126.184 63.5183 126.238C65.0052 126.279 66.4788 126.09 67.8982 125.576C70.1829 124.765 71.8599 123.223 73.2253 121.276C73.3874 121.046 73.4687 120.749 73.9011 120.6C73.9011 120.965 73.8876 121.249 73.9011 121.533C73.9552 122.696 74.0363 123.845 74.0769 125.008C74.0904 125.345 74.1984 125.522 74.5495 125.481C74.6577 125.468 74.7666 125.481 74.8747 125.481H83.2155C83.4589 125.481 83.7027 125.535 83.946 125.373C83.8649 124.643 83.7429 123.899 83.6618 123.156C83.4185 120.817 83.3778 118.465 83.3913 116.126V106.325C83.3913 105.379 83.3513 104.432 83.1755 103.499C82.5671 100.106 80.9177 97.415 77.903 95.6169C75.7942 94.3597 73.4822 93.7926 71.0759 93.5222ZM143.092 94.0642C140.645 93.2126 138.157 93.1989 135.656 93.7126C132.182 94.4292 129.437 96.2275 127.72 99.4314C127.653 99.5666 127.612 99.7559 127.301 99.783V94.9158C127.301 94.1725 127.301 94.1589 126.558 94.1589H118.217C117.46 94.1589 117.446 94.159 117.446 94.9021V124.806C117.446 125.496 117.46 125.51 118.163 125.51H127.558C128.261 125.51 128.262 125.496 128.275 124.806V112.004C128.275 110.814 128.369 109.638 128.586 108.462C128.843 107.015 129.289 105.636 130.181 104.433C131.533 102.622 133.723 102.162 135.535 102.554C136.995 102.865 137.82 103.919 138.306 105.258C138.725 106.407 138.82 107.624 138.82 108.841V124.482C138.82 124.671 138.834 124.86 138.82 125.05C138.793 125.415 138.982 125.523 139.306 125.496C139.441 125.482 139.577 125.496 139.712 125.496H149.27C149.54 125.509 149.662 125.374 149.648 125.104C149.635 124.915 149.648 124.725 149.648 124.536C149.648 120.561 149.662 116.6 149.648 112.626C149.648 111.463 149.675 110.3 149.838 109.151C150.027 107.772 150.351 106.448 151.027 105.218C151.676 104.055 152.568 103.136 153.88 102.73C156.84 101.824 159.125 102.838 159.883 105.961C160.085 106.812 160.179 107.665 160.179 108.53V125.144C160.179 125.361 160.261 125.496 160.505 125.496H170.143C171.09 125.496 171.009 125.55 171.009 124.603C171.009 119.223 170.995 113.856 171.009 108.475C171.009 107.015 170.968 105.569 170.886 104.109C170.819 102.73 170.603 101.365 170.224 100.04C169.237 96.5248 166.952 94.4021 163.37 93.7126C161.504 93.3612 159.626 93.2667 157.733 93.5505C154.962 93.9696 152.528 95.0785 150.541 97.1199C149.878 97.7958 149.351 98.5795 148.783 99.323C148.553 99.1474 148.486 98.9044 148.378 98.6882C147.242 96.417 145.471 94.8889 143.092 94.0642ZM69.1023 111.367C70.3729 111.421 71.6304 111.489 72.9011 111.543C73.2252 111.556 73.3199 111.692 73.3064 111.989C73.1441 115.815 69.9803 120.033 64.8972 118.789C63.6537 118.491 62.6807 117.789 62.2751 116.505C61.8155 115.058 62.3832 113.462 63.654 112.584C64.5597 111.948 65.6009 111.664 66.6823 111.529C67.4798 111.421 68.2913 111.326 69.1023 111.367Z"/>
</mask>
<path d="M88.446 18.905L95.1787 25.6377L88.446 18.905ZM133.754 18.905L140.486 12.1723L140.486 12.1723L133.754 18.905ZM201.717 86.8669L208.449 80.1343L208.449 80.1342L201.717 86.8669ZM201.717 132.176L208.449 138.908L208.449 138.908L201.717 132.176ZM133.754 200.137L140.486 206.87L140.486 206.87L133.754 200.137ZM88.446 200.137L81.7133 206.87L81.7134 206.87L88.446 200.137ZM20.4841 132.176L13.7514 138.908L20.4841 132.176ZM20.4841 86.8669L13.7514 80.1343L20.4841 86.8669ZM106.615 93.4812L107.28 83.983L107.27 83.9823L106.615 93.4812ZM96.3816 95.0095L92.7454 86.2098L92.7451 86.2099L96.3816 95.0095ZM87.5124 104.216L78.5018 101.139L78.4956 101.157L78.4894 101.175L87.5124 104.216ZM86.7282 111.881L77.2621 112.905L77.2647 112.929L77.2674 112.953L86.7282 111.881ZM89.3376 119.114L81.5214 124.551L81.5263 124.558L81.5311 124.565L89.3376 119.114ZM98.1931 125.292L95.4384 134.406L95.4501 134.41L98.1931 125.292ZM107.967 126.076L109.049 135.536L109.058 135.535L109.067 135.534L107.967 126.076ZM113.118 125.049L115.82 134.178L115.85 134.17L115.879 134.161L113.118 125.049ZM113.699 124.251L123.216 123.971L123.216 123.947L123.215 123.923L113.699 124.251ZM113.497 117.208L123.014 116.934L122.999 116.395L122.923 115.861L113.497 117.208ZM113.321 116.937L115.782 107.739L112.835 106.951L109.978 108.022L113.321 116.937ZM112.618 117.22L116.059 126.098L116.069 126.094L112.618 117.22ZM105.155 118.168L103.623 127.565L103.647 127.569L103.67 127.573L105.155 118.168ZM98.4362 113.192L107.13 109.31L107.128 109.304L98.4362 113.192ZM97.9226 108.352L107.354 109.656L107.355 109.648L107.356 109.641L97.9226 108.352ZM103.938 101.606L101.776 92.3335L101.76 92.3372L101.745 92.3409L103.938 101.606ZM111.522 102.431L107.655 111.132L107.713 111.158L107.772 111.183L111.522 102.431ZM112.632 102.959L108.373 111.475L117.009 115.793L121.206 107.098L112.632 102.959ZM112.834 101.837L103.356 100.922L103.347 101.014L103.34 101.107L112.834 101.837ZM113.415 95.9558L122.886 96.9356L122.887 96.9273L122.887 96.9191L113.415 95.9558ZM112.753 94.8337L116.448 86.0585L116.445 86.0573L112.753 94.8337ZM71.0759 93.5222L72.1391 84.0603L72.1299 84.0593L72.1206 84.0583L71.0759 93.5222ZM64.8571 93.5359L64.0511 84.0486L64.044 84.0492L64.8571 93.5359ZM56.5827 95.3738L53.1557 86.4905L53.1344 86.4987L53.1131 86.507L56.5827 95.3738ZM55.9616 96.3064L46.442 96.493L46.4422 96.4994L55.9616 96.3064ZM56.1101 102.296H65.6315V102.167L65.628 102.038L56.1101 102.296ZM56.2585 102.809L51.6296 111.13L55.7827 113.44L60.1255 111.51L56.2585 102.809ZM57.7185 102.134L54.0641 93.3413L54.0014 93.3674L53.9391 93.3943L57.7185 102.134ZM67.9665 100.674L68.6862 91.1794L68.6733 91.1784L68.6605 91.1775L67.9665 100.674ZM70.5349 101.349L66.5084 109.978L66.5439 109.994L66.5795 110.01L70.5349 101.349ZM73.279 105.351L82.7513 104.385L82.7504 104.376L73.279 105.351ZM72.6443 105.96L71.2532 115.379L71.2619 115.38L71.2706 115.382L72.6443 105.96ZM63.0456 106L64.4326 115.42L64.4423 115.418L63.0456 106ZM56.7585 108.028L61.4973 116.286L61.5053 116.282L61.5133 116.277L56.7585 108.028ZM52.2028 114.382L42.8171 112.78L42.8071 112.838L42.7979 112.897L52.2028 114.382ZM51.8923 115.085L47.4708 106.652L42.3709 109.326V115.085H51.8923ZM51.8923 117.518H42.3709V122.277L46.1768 125.134L51.8923 117.518ZM52.1892 118.167L61.5843 116.621L61.5827 116.611L61.581 116.601L52.1892 118.167ZM57.2595 124.845L61.4705 116.306L61.4611 116.301L61.4517 116.297L57.2595 124.845ZM63.5183 126.238L63.7779 116.72L63.7671 116.72L63.7563 116.72L63.5183 126.238ZM67.8982 125.576L64.7126 116.603L64.6855 116.613L64.6584 116.623L67.8982 125.576ZM73.2253 121.276L65.4444 115.788L65.4373 115.799L65.4301 115.809L73.2253 121.276ZM73.9011 120.6H83.4225V107.259L70.8059 111.596L73.9011 120.6ZM73.9011 121.533L83.4122 121.091L83.4118 121.081L73.9011 121.533ZM74.0769 125.008L64.5612 125.34L64.5621 125.364L64.563 125.388L74.0769 125.008ZM74.5495 125.481L75.6364 134.94L75.6835 134.935L75.7305 134.929L74.5495 125.481ZM83.946 125.373L89.2276 133.295L94.0491 130.081L93.4092 124.321L83.946 125.373ZM83.6618 123.156L74.1915 124.141L74.194 124.165L74.1966 124.189L83.6618 123.156ZM83.3913 116.126L92.9126 116.181L92.9128 116.153V116.126H83.3913ZM83.1755 103.499L73.8035 105.179L73.8109 105.22L73.8187 105.262L83.1755 103.499ZM77.903 95.6169L82.7802 87.4395L82.7786 87.4385L77.903 95.6169ZM143.092 94.0642L139.962 103.057L139.973 103.061L143.092 94.0642ZM135.656 93.7126L133.74 84.3859L133.733 84.3875L135.656 93.7126ZM127.72 99.4314L119.328 94.9342L119.264 95.0538L119.203 95.1752L127.72 99.4314ZM127.301 99.783H117.78V110.168L128.126 109.269L127.301 99.783ZM127.301 94.9158H136.823H127.301ZM126.558 94.1589L126.558 84.6375H126.558V94.1589ZM118.217 94.1589V84.6375V94.1589ZM117.446 94.9021L107.925 94.9021V94.9021H117.446ZM128.275 124.806L137.795 124.993L137.797 124.9V124.806H128.275ZM128.275 112.004L118.754 112.004V112.004H128.275ZM128.586 108.462L137.95 110.184L137.955 110.155L137.96 110.127L128.586 108.462ZM130.181 104.433L122.551 98.7385L122.542 98.7501L122.533 98.7618L130.181 104.433ZM135.535 102.554L133.521 111.86L133.536 111.864L133.551 111.867L135.535 102.554ZM138.306 105.258L129.358 108.512L129.361 108.52L138.306 105.258ZM138.82 124.482H129.299V124.482L138.82 124.482ZM138.82 125.05L148.315 125.753L148.316 125.74L148.317 125.726L138.82 125.05ZM139.306 125.496L140.097 134.984L140.175 134.978L140.254 134.97L139.306 125.496ZM139.712 125.496L139.71 135.017H139.712V125.496ZM149.27 125.496L149.742 115.986L149.507 115.974H149.27V125.496ZM149.648 125.104L159.158 124.632L159.153 124.529L159.145 124.426L149.648 125.104ZM149.648 124.536H140.127V124.536H149.648ZM149.648 112.626L140.127 112.626V112.642L140.127 112.658L149.648 112.626ZM149.838 109.151L159.266 110.482L159.268 110.464L159.271 110.446L149.838 109.151ZM151.027 105.218L142.713 100.577L142.697 100.605L142.682 100.633L151.027 105.218ZM153.88 102.73L151.094 93.6254L151.08 93.6297L151.066 93.6342L153.88 102.73ZM159.883 105.961L169.145 103.755L169.141 103.736L169.136 103.717L159.883 105.961ZM171.009 124.603H180.53V124.603H171.009ZM171.009 108.475L180.53 108.499L180.53 108.487V108.475L171.009 108.475ZM170.886 104.109L161.376 104.575L161.378 104.606L161.38 104.637L170.886 104.109ZM170.224 100.04L161.057 102.614L161.063 102.635L161.069 102.655L170.224 100.04ZM163.37 93.7126L165.169 84.3628L165.151 84.3593L165.133 84.3558L163.37 93.7126ZM157.733 93.5505L156.321 84.1344L156.309 84.1361L157.733 93.5505ZM150.541 97.1199L157.341 103.784L157.352 103.773L157.363 103.762L150.541 97.1199ZM148.783 99.323L142.996 106.884L150.565 112.678L156.35 105.102L148.783 99.323ZM148.378 98.6882L156.895 94.432L156.894 94.4301L148.378 98.6882ZM69.1023 111.367L68.6268 120.876L68.6621 120.878L68.6974 120.88L69.1023 111.367ZM72.9011 111.543L72.4963 121.056L72.5013 121.056L72.9011 111.543ZM73.3064 111.989L63.7948 111.557L63.7941 111.571L63.7935 111.586L73.3064 111.989ZM64.8972 118.789L67.1601 109.54L67.1361 109.534L67.112 109.529L64.8972 118.789ZM62.2751 116.505L71.3542 113.636L71.3518 113.629L71.3494 113.621L62.2751 116.505ZM63.654 112.584L69.0694 120.415L69.0955 120.397L69.1215 120.379L63.654 112.584ZM66.6823 111.529L67.8633 120.977L67.9125 120.971L67.9616 120.964L66.6823 111.529ZM88.446 18.905L95.1787 25.6377C103.972 16.8447 118.228 16.8447 127.021 25.6377L133.754 18.905L140.486 12.1723C124.256 -4.05725 97.9432 -4.05749 81.7133 12.1723L88.446 18.905ZM133.754 18.905L127.021 25.6377L194.984 93.5997L201.717 86.8669L208.449 80.1342L140.486 12.1723L133.754 18.905ZM201.717 86.8669L194.984 93.5996C203.777 102.393 203.777 116.65 194.984 125.443L201.717 132.176L208.449 138.908C224.679 122.678 224.679 96.3641 208.449 80.1343L201.717 86.8669ZM201.717 132.176L194.984 125.443L127.021 193.405L133.754 200.137L140.486 206.87L208.449 138.908L201.717 132.176ZM133.754 200.137L127.021 193.405C118.228 202.198 103.972 202.198 95.1787 193.405L88.446 200.137L81.7134 206.87C97.9432 223.1 124.256 223.1 140.486 206.87L133.754 200.137ZM88.446 200.137L95.1787 193.405L27.2168 125.443L20.4841 132.176L13.7514 138.908L81.7133 206.87L88.446 200.137ZM20.4841 132.176L27.2168 125.443C18.4236 116.65 18.4236 102.393 27.2168 93.5996L20.4841 86.8669L13.7514 80.1343C-2.47843 96.3641 -2.47843 122.678 13.7514 138.908L20.4841 132.176ZM20.4841 86.8669L27.2168 93.5996L95.1787 25.6377L88.446 18.905L81.7133 12.1723L13.7514 80.1343L20.4841 86.8669ZM106.615 93.4812L107.27 83.9823C102.546 83.6566 97.604 84.2021 92.7454 86.2098L96.3816 95.0095L100.018 103.809C101.702 103.113 103.627 102.819 105.96 102.98L106.615 93.4812ZM96.3816 95.0095L92.7451 86.2099C86.1958 88.9164 80.9903 93.8511 78.5018 101.139L87.5124 104.216L96.523 107.292C97.0628 105.712 97.9962 104.645 100.018 103.809L96.3816 95.0095ZM87.5124 104.216L78.4894 101.175C77.1716 105.086 76.8437 109.04 77.2621 112.905L86.7282 111.881L96.1944 110.856C96.0451 109.477 96.177 108.32 96.5354 107.256L87.5124 104.216ZM86.7282 111.881L77.2674 112.953C77.7097 116.853 78.9517 120.857 81.5214 124.551L89.3376 119.114L97.1538 113.677C96.6953 113.018 96.3417 112.154 96.189 110.808L86.7282 111.881ZM89.3376 119.114L81.5311 124.565C85.1544 129.754 90.146 132.806 95.4384 134.406L98.1931 125.292L100.948 116.178C98.9941 115.587 97.901 114.747 97.1441 113.663L89.3376 119.114ZM98.1931 125.292L95.4501 134.41C100.043 135.791 104.634 136.04 109.049 135.536L107.967 126.076L106.886 116.616C104.677 116.869 102.724 116.712 100.936 116.174L98.1931 125.292ZM107.967 126.076L109.067 135.534C111.256 135.279 113.52 134.859 115.82 134.178L113.118 125.049L110.415 115.919C109.336 116.238 108.167 116.467 106.868 116.618L107.967 126.076ZM113.118 125.049L115.879 134.161C116.884 133.856 119.39 132.967 121.275 130.38C123.182 127.763 123.249 125.074 123.216 123.971L113.699 124.251L104.182 124.531C104.163 123.887 104.162 121.529 105.886 119.163C107.59 116.826 109.797 116.106 110.357 115.936L113.118 125.049ZM113.699 124.251L123.215 123.923C123.135 121.602 123.084 119.366 123.014 116.934L113.497 117.208L103.979 117.481C104.045 119.754 104.101 122.195 104.183 124.579L113.699 124.251ZM113.497 117.208L122.923 115.861C123 116.406 123.037 117.342 123.001 116.646C122.989 116.409 122.941 115.282 122.478 113.944C121.944 112.403 120.972 110.864 119.485 109.639C118.116 108.512 116.726 107.992 115.782 107.739L113.321 116.937L110.86 126.135C110.017 125.91 108.698 125.425 107.379 124.339C105.941 123.155 104.998 121.663 104.482 120.171C104.036 118.882 103.993 117.806 103.983 117.62C103.95 116.976 103.986 117.962 104.071 118.554L113.497 117.208ZM113.321 116.937L109.978 108.022C109.704 108.125 109.453 108.229 109.347 108.272C109.275 108.302 109.241 108.316 109.204 108.332C109.171 108.345 109.162 108.348 109.166 108.347L112.618 117.22L116.069 126.094C116.302 126.004 116.528 125.91 116.612 125.875C116.669 125.852 116.694 125.841 116.709 125.835C116.723 125.83 116.704 125.838 116.664 125.852L113.321 116.937ZM112.618 117.22L109.177 108.343C107.949 108.818 107.181 108.848 106.64 108.763L105.155 118.168L103.67 127.573C108.266 128.298 112.474 127.488 116.059 126.098L112.618 117.22ZM105.155 118.168L106.687 108.77C106.333 108.713 106.429 108.664 106.702 108.861C106.832 108.954 106.948 109.066 107.037 109.177C107.123 109.285 107.146 109.345 107.13 109.31L98.4362 113.192L89.7421 117.074C92.5251 123.307 97.8481 126.624 103.623 127.565L105.155 118.168ZM98.4362 113.192L107.128 109.304C107.194 109.453 107.242 109.597 107.273 109.723C107.304 109.848 107.316 109.939 107.32 109.986C107.327 110.068 107.309 109.984 107.354 109.656L97.9226 108.352L88.4908 107.049C88.1242 109.701 88.063 113.321 89.7449 117.08L98.4362 113.192ZM97.9226 108.352L107.356 109.641C107.347 109.708 107.28 109.994 106.994 110.318C106.696 110.655 106.345 110.821 106.132 110.872L103.938 101.606L101.745 92.3409C94.4088 94.0777 89.4536 99.9988 88.4887 107.064L97.9226 108.352ZM103.938 101.606L106.1 110.879C106.424 110.804 106.848 110.774 107.655 111.132L111.522 102.431L115.389 93.7305C111.329 91.9262 106.671 91.1922 101.776 92.3335L103.938 101.606ZM111.522 102.431L107.772 111.183C107.853 111.218 107.963 111.27 108.373 111.475L112.632 102.959L116.89 94.4425C116.543 94.2694 115.948 93.9692 115.273 93.6798L111.522 102.431ZM112.632 102.959L121.206 107.098C121.883 105.695 122.133 104.424 122.241 103.567C122.291 103.164 122.313 102.828 122.322 102.673C122.337 102.412 122.328 102.55 122.327 102.566L112.834 101.837L103.34 101.107C103.33 101.242 103.323 101.358 103.319 101.424C103.313 101.533 103.315 101.494 103.313 101.538C103.311 101.564 103.319 101.414 103.346 101.198C103.406 100.716 103.569 99.8303 104.057 98.8193L112.632 102.959ZM112.834 101.837L122.311 102.752C122.501 100.785 122.687 98.8575 122.886 96.9356L113.415 95.9558L103.944 94.9761C103.737 96.9743 103.545 98.9682 103.356 100.922L112.834 101.837ZM113.415 95.9558L122.887 96.9191C122.89 96.8886 122.91 96.6988 122.923 96.555C122.937 96.4023 122.967 96.0596 122.974 95.6465C122.986 94.9095 122.971 92.7928 121.69 90.5292C120.392 88.2348 118.554 87.1206 117.818 86.7111C117.161 86.346 116.474 86.0696 116.448 86.0585L112.753 94.8337L109.058 103.609C109.417 103.76 109.015 103.605 108.568 103.356C108.04 103.063 106.334 102.06 105.116 99.9054C103.915 97.7822 103.925 95.8353 103.934 95.3328C103.94 94.9278 103.992 94.5073 103.942 94.9925L113.415 95.9558ZM112.753 94.8337L116.445 86.0573C113.24 84.7092 110.088 84.1798 107.28 83.9831L106.615 93.4812L105.949 102.979C107.387 103.08 108.345 103.309 109.061 103.61L112.753 94.8337ZM71.0759 93.5222L72.1206 84.0583C69.1725 83.7328 66.418 83.8475 64.0511 84.0486L64.8571 93.5359L65.6632 103.023C67.4329 102.873 68.8156 102.852 70.0312 102.986L71.0759 93.5222ZM64.8571 93.5359L64.044 84.0492C60.476 84.3551 56.8001 85.0845 53.1557 86.4905L56.5827 95.3738L60.0098 104.257C61.6918 103.608 63.5602 103.203 65.6703 103.023L64.8571 93.5359ZM56.5827 95.3738L53.1131 86.507C53.0668 86.5251 52.9069 86.5873 52.751 86.6515C52.5957 86.7154 52.2764 86.8494 51.9017 87.0401C51.1848 87.4051 49.4987 88.3501 48.1593 90.3207C46.8174 92.2952 46.5574 94.217 46.4823 95.0527C46.4172 95.7783 46.4417 96.475 46.442 96.493L55.9616 96.3064L65.4812 96.1198C65.4748 95.7934 65.4959 96.2317 65.4489 96.7558C65.3919 97.39 65.1715 99.1674 63.9088 101.025C62.6487 102.879 61.0816 103.735 60.5415 104.01C60.1118 104.229 59.6987 104.379 60.0523 104.241L56.5827 95.3738ZM55.9616 96.3064L46.4422 96.4994C46.4835 98.5377 46.5382 100.558 46.5921 102.553L56.1101 102.296L65.628 102.038C65.5738 100.032 65.5209 98.0766 65.4811 96.1134L55.9616 96.3064ZM56.1101 102.296H46.5886C46.5886 101.651 46.6823 100.96 46.637 101.364C46.6278 101.446 46.5235 102.26 46.5975 103.263C46.6801 104.383 46.9917 105.98 47.9866 107.624C48.9967 109.293 50.3526 110.419 51.6296 111.13L56.2585 102.809L60.8874 94.4888C62.0429 95.1316 63.3195 96.1799 64.279 97.7656C65.2233 99.3262 65.5129 100.834 65.5888 101.862C65.6254 102.358 65.6141 102.762 65.5999 103.02C65.586 103.269 65.5643 103.459 65.5612 103.487C65.526 103.8 65.6315 103.021 65.6315 102.296H56.1101ZM56.2585 102.809L60.1255 111.51C60.5055 111.341 60.8723 111.165 61.0714 111.071C61.3145 110.955 61.4202 110.906 61.4978 110.873L57.7185 102.134L53.9391 93.3943C53.5167 93.577 53.1357 93.758 52.8955 93.8722C52.6112 94.0074 52.4981 94.0612 52.3915 94.1085L56.2585 102.809ZM57.7185 102.134L61.3728 110.926C62.9555 110.268 64.8419 109.992 67.2726 110.17L67.9665 100.674L68.6605 91.1775C64.0612 90.8414 59.0517 91.2683 54.0641 93.3413L57.7185 102.134ZM67.9665 100.674L67.2468 110.168C66.9718 110.147 66.7184 110.076 66.5084 109.978L70.5349 101.349L74.5614 92.7212C72.7292 91.8662 70.7455 91.3355 68.6862 91.1794L67.9665 100.674ZM70.5349 101.349L66.5795 110.01C65.9813 109.737 65.1797 109.171 64.5539 108.231C63.9647 107.346 63.8343 106.585 63.8076 106.326L73.279 105.351L82.7504 104.376C82.2697 99.7064 79.7322 95.0823 74.4903 92.6884L70.5349 101.349ZM73.279 105.351L63.8068 106.318C63.83 106.546 63.7487 105.949 63.7949 105.173C63.8331 104.532 64.0443 101.514 66.6988 99.0111C69.3337 96.5271 72.3363 96.4822 72.9384 96.4766C73.6873 96.4697 74.2655 96.574 74.0179 96.5379L72.6443 105.96L71.2706 115.382C71.3472 115.393 72.1752 115.527 73.1146 115.519C73.907 115.511 77.0405 115.433 79.7615 112.867C82.502 110.284 82.7546 107.136 82.8041 106.305C82.8617 105.338 82.7618 104.488 82.7513 104.385L73.279 105.351ZM72.6443 105.96L74.0353 96.5404C69.833 95.9199 65.6863 95.9826 61.6489 96.5813L63.0456 106L64.4423 115.418C66.7857 115.071 69.0477 115.053 71.2532 115.379L72.6443 105.96ZM63.0456 106L61.6586 96.5799C58.7432 97.0092 55.3366 97.8578 52.0037 99.7788L56.7585 108.028L61.5133 116.277C62.0738 115.954 62.9409 115.639 64.4326 115.42L63.0456 106ZM56.7585 108.028L52.0197 99.7697C47.3377 102.456 43.8294 106.848 42.8171 112.78L52.2028 114.382L61.5886 115.983C61.5968 115.935 61.5971 115.961 61.5664 116.035C61.5349 116.111 61.4877 116.197 61.4289 116.277C61.3711 116.357 61.3265 116.397 61.3209 116.402C61.3177 116.405 61.3671 116.361 61.4973 116.286L56.7585 108.028ZM52.2028 114.382L42.7979 112.897C42.7728 113.056 42.6863 113.717 42.7393 113.319C42.7502 113.238 42.816 112.722 43.0105 112.066C43.2178 111.367 43.6178 110.339 44.4115 109.27C45.2401 108.155 46.2962 107.268 47.4708 106.652L51.8923 115.085L56.3138 123.517C57.6302 122.827 58.791 121.847 59.6981 120.626C60.5703 119.452 61.0226 118.305 61.267 117.482C61.4986 116.701 61.5863 116.052 61.6149 115.838C61.6856 115.308 61.6126 115.836 61.6078 115.867L52.2028 114.382ZM51.8923 115.085H42.3709V117.518H51.8923H61.4137V115.085H51.8923ZM51.8923 117.518L46.1768 125.134C44.5333 123.9 43.6469 122.36 43.2008 121.18C42.8525 120.259 42.7461 119.425 42.7973 119.732L52.1892 118.167L61.581 116.601C61.5778 116.582 61.5318 116.295 61.4629 115.976C61.389 115.634 61.255 115.086 61.0123 114.444C60.4819 113.042 59.4673 111.299 57.6077 109.903L51.8923 117.518ZM52.1892 118.167L42.794 119.712C43.8462 126.109 47.7115 130.768 53.0673 133.394L57.2595 124.845L61.4517 116.297C61.2881 116.216 61.2327 116.17 61.2461 116.181C61.2636 116.194 61.3291 116.25 61.4082 116.353C61.4885 116.458 61.5454 116.562 61.5788 116.641C61.6106 116.716 61.6008 116.721 61.5843 116.621L52.1892 118.167ZM57.2595 124.845L53.0484 133.385C56.6336 135.153 60.226 135.68 63.2802 135.756L63.5183 126.238L63.7563 116.72C62.4848 116.688 61.8326 116.484 61.4705 116.306L57.2595 124.845ZM63.5183 126.238L63.2587 135.756C65.7279 135.823 68.4165 135.514 71.1379 134.529L67.8982 125.576L64.6584 116.623C64.5412 116.665 64.2825 116.734 63.7779 116.72L63.5183 126.238ZM67.8982 125.576L71.0837 134.549C75.7569 132.89 78.8883 129.783 81.0205 126.744L73.2253 121.276L65.4301 115.809C65.1156 116.257 64.9031 116.461 64.808 116.54C64.7358 116.6 64.7201 116.601 64.7126 116.603L67.8982 125.576ZM73.2253 121.276L81.0062 126.764C81.3181 126.322 81.5948 125.839 81.5224 125.961C81.5213 125.963 81.5066 125.987 81.4848 126.023C81.4623 126.06 81.4279 126.115 81.3839 126.183C81.2962 126.318 81.1598 126.519 80.9768 126.754C80.5932 127.248 80.0431 127.841 79.2898 128.397C78.535 128.954 77.7486 129.346 76.9963 129.605L73.9011 120.6L70.8059 111.596C69.8374 111.929 68.8787 112.414 67.982 113.075C67.0868 113.736 66.4251 114.446 65.9469 115.061C65.5085 115.625 65.2146 116.127 65.1545 116.228C65.0078 116.475 65.2135 116.116 65.4444 115.788L73.2253 121.276ZM73.9011 120.6H64.3797C64.3797 120.716 64.3782 120.722 64.3752 120.992C64.373 121.19 64.37 121.557 64.3904 121.985L73.9011 121.533L83.4118 121.081C83.4186 121.225 83.4157 121.308 83.4169 121.203C83.4171 121.18 83.4175 121.153 83.418 121.114C83.4185 121.08 83.4192 121.031 83.4198 120.982C83.4211 120.881 83.4225 120.749 83.4225 120.6H73.9011ZM73.9011 121.533L64.3899 121.975C64.4622 123.53 64.5201 124.161 64.5612 125.34L74.0769 125.008L83.5925 124.676C83.5525 123.529 83.4481 121.862 83.4122 121.091L73.9011 121.533ZM74.0769 125.008L64.563 125.388C64.5863 125.969 64.6756 129.032 67.087 131.731C70.079 135.079 73.9413 135.135 75.6364 134.94L74.5495 125.481L73.4626 116.022C74.8066 115.868 78.4394 115.856 81.2862 119.042C83.5525 121.578 83.581 124.384 83.5907 124.627L74.0769 125.008ZM74.5495 125.481L75.7305 134.929C75.3715 134.974 75.07 134.989 74.8533 134.994C74.6411 134.999 74.4792 134.995 74.4157 134.993C74.3827 134.992 74.3599 134.991 74.3639 134.991C74.3678 134.991 74.3663 134.991 74.3795 134.992C74.3886 134.992 74.4044 134.993 74.4228 134.994C74.4876 134.996 74.6607 135.003 74.8747 135.003V125.481V115.96C75.0346 115.96 75.1536 115.965 75.1642 115.965C75.2413 115.968 75.0792 115.962 75.0085 115.959C74.8006 115.953 74.1623 115.934 73.3685 116.033L74.5495 125.481ZM74.8747 125.481V135.003H83.2155V125.481V115.96H74.8747V125.481ZM83.2155 125.481V135.003C83.0179 135.003 82.7634 134.99 83.0056 135C83.1161 135.005 83.5639 135.025 84.1132 134.994C85.3969 134.922 87.3054 134.577 89.2276 133.295L83.946 125.373L78.6645 117.451C80.3432 116.331 82.0082 116.04 83.0483 115.981C83.2777 115.968 83.4635 115.968 83.584 115.969C83.7003 115.97 83.7843 115.973 83.7906 115.974C83.911 115.979 83.5348 115.96 83.2155 115.96V125.481ZM83.946 125.373L93.4092 124.321C93.3526 123.812 93.284 123.318 93.237 122.975C93.184 122.589 93.1512 122.344 93.1271 122.123L83.6618 123.156L74.1966 124.189C74.2536 124.711 74.3223 125.21 74.3709 125.564C74.4254 125.961 74.4583 126.203 74.4828 126.424L83.946 125.373ZM83.6618 123.156L93.1321 122.171C92.9425 120.348 92.8998 118.402 92.9126 116.181L83.3913 116.126L73.8701 116.071C73.8558 118.527 73.8944 121.286 74.1915 124.141L83.6618 123.156ZM83.3913 116.126H92.9128V106.325H83.3913H73.8699V116.126H83.3913ZM83.3913 106.325H92.9128C92.9128 105.155 92.8694 103.525 92.5323 101.736L83.1755 103.499L73.8187 105.262C73.8331 105.338 73.8699 105.602 73.8699 106.325H83.3913ZM83.1755 103.499L92.5475 101.818C91.5171 96.0713 88.4607 90.8275 82.7802 87.4395L77.903 95.6169L73.0259 103.794C73.3509 103.988 73.4385 104.118 73.4756 104.175C73.5298 104.258 73.6873 104.531 73.8035 105.179L83.1755 103.499ZM77.903 95.6169L82.7786 87.4385C79.088 85.2384 75.3088 84.4165 72.1391 84.0603L71.0759 93.5222L70.0126 102.984C71.6555 103.169 72.5003 103.481 73.0275 103.795L77.903 95.6169ZM143.092 94.0642L146.221 85.0719C141.808 83.5357 137.523 83.6089 133.74 84.3859L135.656 93.7126L137.572 103.039C138.791 102.789 139.482 102.889 139.962 103.057L143.092 94.0642ZM135.656 93.7126L133.733 84.3875C127.886 85.5933 122.557 88.9077 119.328 94.9342L127.72 99.4314L136.113 103.929C136.299 103.582 136.437 103.477 136.509 103.425C136.61 103.354 136.905 103.177 137.579 103.038L135.656 93.7126ZM127.72 99.4314L119.203 95.1752C119.144 95.2943 119.097 95.3934 119.068 95.4565C119.04 95.5164 119.017 95.5675 119.014 95.5746C118.991 95.6256 119.046 95.5015 119.114 95.3613C119.261 95.061 119.646 94.3072 120.346 93.4833C121.099 92.596 122.09 91.7743 123.318 91.1762C124.502 90.5992 125.614 90.3723 126.477 90.2973L127.301 99.783L128.126 109.269C129.144 109.18 130.378 108.919 131.659 108.295C132.984 107.65 134.048 106.767 134.859 105.812C135.616 104.921 136.043 104.092 136.226 103.718C136.274 103.619 136.312 103.537 136.337 103.484C136.349 103.457 136.359 103.435 136.366 103.42C136.371 103.407 136.377 103.394 136.378 103.394C136.395 103.354 136.328 103.507 136.238 103.688L127.72 99.4314ZM127.301 99.783H136.823V94.9158H127.301H117.78V99.783H127.301ZM127.301 94.9158H136.823C136.823 94.8514 136.823 94.6646 136.82 94.4766C136.816 94.2964 136.806 93.9105 136.754 93.445C136.68 92.7652 136.363 90.0338 134.061 87.6482C131.711 85.2117 128.931 84.8187 128.153 84.7228C127.657 84.6617 127.247 84.6478 127.048 84.6427C126.837 84.6373 126.64 84.6375 126.558 84.6375L126.558 94.1589L126.558 103.68C126.941 103.68 126.424 103.697 125.823 103.623C125.254 103.552 122.613 103.209 120.356 100.869C118.148 98.5798 117.877 95.9911 117.825 95.5229C117.766 94.9858 117.78 94.503 117.78 94.9158H127.301ZM126.558 94.1589V84.6375H118.217V94.1589V103.68H126.558V94.1589ZM118.217 94.1589V84.6375C118.15 84.6375 117.964 84.6371 117.776 84.6408C117.597 84.6444 117.215 84.6545 116.756 84.704C116.1 84.7748 113.387 85.0774 110.998 87.3406C108.525 89.6841 108.114 92.48 108.013 93.2868C107.949 93.7903 107.935 94.207 107.93 94.4086C107.924 94.6213 107.925 94.8208 107.925 94.9021L117.446 94.9021L126.967 94.9022C126.967 94.516 126.984 95.0441 126.907 95.6581C126.832 96.2559 126.472 98.9124 124.097 101.163C121.806 103.333 119.239 103.59 118.798 103.637C118.274 103.694 117.804 103.68 118.217 103.68V94.1589ZM117.446 94.9021H107.925V124.806H117.446H126.967V94.9021H117.446ZM117.446 124.806H107.925C107.925 124.883 107.924 125.077 107.93 125.286C107.935 125.484 107.949 125.893 108.011 126.388C108.111 127.185 108.509 129.894 110.873 132.213C113.202 134.499 115.877 134.861 116.617 134.95C117.096 135.008 117.493 135.021 117.688 135.026C117.893 135.031 118.084 135.031 118.163 135.031V125.51V115.988C117.803 115.988 118.304 115.973 118.892 116.043C119.431 116.108 121.97 116.424 124.209 118.62C126.481 120.849 126.832 123.426 126.907 124.026C126.984 124.642 126.967 125.17 126.967 124.806H117.446ZM118.163 125.51V135.031H127.558V125.51V115.988H118.163V125.51ZM127.558 125.51V135.031C127.636 135.031 127.828 135.031 128.034 135.026C128.228 135.021 128.629 135.007 129.115 134.948C129.877 134.856 132.576 134.48 134.907 132.151C137.219 129.839 137.603 127.161 137.697 126.448C137.758 125.981 137.776 125.595 137.783 125.418C137.79 125.233 137.794 125.05 137.795 124.993L128.275 124.806L118.756 124.62C118.748 125.022 118.743 124.519 118.816 123.966C118.884 123.45 119.221 120.904 121.444 118.682C123.684 116.443 126.251 116.114 126.815 116.045C127.412 115.972 127.923 115.988 127.558 115.988V125.51ZM128.275 124.806H137.797V112.004H128.275H118.754V124.806H128.275ZM128.275 112.004L137.797 112.004C137.797 111.321 137.85 110.727 137.95 110.184L128.586 108.462L119.221 106.739C118.889 108.549 118.754 110.307 118.754 112.004L128.275 112.004ZM128.586 108.462L137.96 110.127C137.987 109.974 138.011 109.869 138.029 109.801C138.047 109.733 138.057 109.71 138.052 109.721C138.048 109.733 138.03 109.779 137.992 109.85C137.953 109.922 137.9 110.01 137.829 110.105L130.181 104.433L122.533 98.7618C120.442 101.582 119.611 104.544 119.211 106.797L128.586 108.462ZM130.181 104.433L137.812 110.128C137.188 110.964 136.326 111.508 135.505 111.762C134.759 111.993 134.087 111.983 133.521 111.86L135.535 102.554L137.549 93.2484C132.981 92.2599 126.63 93.2727 122.551 98.7385L130.181 104.433ZM135.535 102.554L133.551 111.867C132.357 111.612 131.239 110.973 130.408 110.105C129.676 109.34 129.412 108.66 129.358 108.512L138.306 105.258L147.254 102.003C146.135 98.9262 143.376 94.4899 137.519 93.242L135.535 102.554ZM138.306 105.258L129.361 108.52C129.279 108.293 129.268 108.169 129.274 108.221C129.278 108.246 129.284 108.307 129.29 108.413C129.295 108.519 129.299 108.657 129.299 108.841H138.82H148.341C148.341 107.227 148.238 104.699 147.251 101.995L138.306 105.258ZM138.82 108.841H129.299V124.482H138.82H148.341V108.841H138.82ZM138.82 124.482L129.299 124.482C129.299 124.562 129.299 124.633 129.3 124.691C129.301 124.749 129.302 124.799 129.303 124.836C129.303 124.855 129.304 124.872 129.304 124.885C129.304 124.9 129.305 124.907 129.305 124.917C129.305 124.936 129.305 124.938 129.305 124.935C129.305 124.932 129.305 124.915 129.305 124.89C129.305 124.864 129.305 124.827 129.305 124.78C129.306 124.689 129.31 124.548 129.323 124.373L138.82 125.05L148.317 125.726C148.354 125.207 148.348 124.779 148.345 124.596C148.344 124.546 148.343 124.502 148.342 124.472C148.342 124.434 148.341 124.43 148.341 124.412C148.34 124.387 148.341 124.423 148.341 124.482L138.82 124.482ZM138.82 125.05L129.325 124.346C129.202 126.001 129.385 129.9 132.888 132.778C135.913 135.262 139.218 135.058 140.097 134.984L139.306 125.496L138.516 116.007C139.07 115.961 142.119 115.716 144.975 118.062C148.309 120.801 148.411 124.463 148.315 125.753L138.82 125.05ZM139.306 125.496L140.254 134.97C139.978 134.998 139.748 135.007 139.587 135.01C139.429 135.013 139.311 135.01 139.272 135.009C139.251 135.009 139.239 135.008 139.248 135.009C139.254 135.009 139.256 135.009 139.269 135.009C139.279 135.01 139.295 135.01 139.313 135.011C139.377 135.013 139.527 135.017 139.71 135.017L139.712 125.496L139.713 115.974C139.775 115.974 139.824 115.975 139.855 115.976C139.886 115.976 139.907 115.977 139.908 115.977C139.957 115.979 139.816 115.974 139.746 115.972C139.555 115.968 139.02 115.956 138.359 116.022L139.306 125.496ZM139.712 125.496V135.017H149.27V125.496V115.974H139.712V125.496ZM149.27 125.496L148.798 135.006C150.408 135.086 153.759 134.823 156.475 131.957C159.086 129.204 159.226 126.007 159.158 124.632L149.648 125.104L140.138 125.577C140.084 124.471 140.17 121.477 142.656 118.855C145.248 116.122 148.402 115.92 149.742 115.986L149.27 125.496ZM149.648 125.104L159.145 124.426C159.158 124.602 159.162 124.743 159.163 124.835C159.164 124.881 159.164 124.919 159.164 124.944C159.163 124.969 159.163 124.986 159.163 124.99C159.163 124.993 159.163 124.99 159.163 124.972C159.164 124.962 159.164 124.954 159.164 124.939C159.165 124.926 159.165 124.909 159.165 124.89C159.166 124.854 159.167 124.803 159.168 124.745C159.169 124.687 159.17 124.616 159.17 124.536H149.648H140.127C140.127 124.476 140.128 124.44 140.127 124.466C140.127 124.483 140.127 124.487 140.126 124.526C140.125 124.555 140.124 124.6 140.123 124.65C140.12 124.833 140.114 125.262 140.151 125.783L149.648 125.104ZM149.648 124.536L159.17 124.536C159.17 120.607 159.183 116.587 159.17 112.593L149.648 112.626L140.127 112.658C140.14 116.614 140.127 120.515 140.127 124.536H149.648ZM149.648 112.626L159.17 112.626C159.17 111.56 159.2 110.944 159.266 110.482L149.838 109.151L140.41 107.82C140.15 109.656 140.127 111.366 140.127 112.626L149.648 112.626ZM149.838 109.151L159.271 110.446C159.377 109.668 159.474 109.616 159.372 109.802L151.027 105.218L142.682 100.633C141.228 103.279 140.676 105.876 140.405 107.856L149.838 109.151ZM151.027 105.218L159.341 109.858C159.289 109.951 159.075 110.313 158.612 110.734C158.112 111.189 157.452 111.592 156.694 111.826L153.88 102.73L151.066 93.6342C146.723 94.9776 144.146 98.0092 142.713 100.577L151.027 105.218ZM153.88 102.73L156.665 111.835C156.661 111.836 155.238 112.268 153.368 111.31C151.315 110.259 150.719 108.573 150.629 108.204L159.883 105.961L169.136 103.717C168.289 100.226 166.172 96.472 162.047 94.3598C158.104 92.3409 154.058 92.7185 151.094 93.6254L153.88 102.73ZM159.883 105.961L150.62 108.166C150.642 108.257 150.658 108.367 150.658 108.53H160.179H169.701C169.701 106.962 169.529 105.368 169.145 103.755L159.883 105.961ZM160.179 108.53H150.658V125.144H160.179H169.701V108.53H160.179ZM160.179 125.144H150.658C150.658 126.155 150.794 128.935 152.946 131.509C155.396 134.439 158.634 135.017 160.505 135.017V125.496V115.974C162.132 115.974 165.207 116.485 167.555 119.294C169.605 121.746 169.701 124.35 169.701 125.144H160.179ZM160.505 125.496V135.017H170.143V125.496V115.974H160.505V125.496ZM170.143 125.496V135.017C170.183 135.017 170.22 135.017 170.279 135.018C170.329 135.018 170.409 135.018 170.493 135.018C170.623 135.017 170.987 135.016 171.415 134.982C171.79 134.953 175.184 134.797 177.886 131.907C180.466 129.147 180.501 125.885 180.513 125.675C180.534 125.3 180.532 124.973 180.532 124.874C180.531 124.659 180.53 124.721 180.53 124.603H171.009H161.487C161.487 125.305 161.487 124.832 161.5 124.609C161.512 124.396 161.556 123.676 161.806 122.769C162.081 121.773 162.674 120.295 163.975 118.902C166.579 116.117 169.816 116.006 169.94 115.997C170.303 115.968 170.766 115.974 170.143 115.974V125.496ZM171.009 124.603H180.53C180.53 119.189 180.516 113.866 180.53 108.499L171.009 108.475L161.487 108.451C161.474 113.846 161.487 119.257 161.487 124.603L171.009 124.603ZM171.009 108.475L180.53 108.475C180.53 106.836 180.484 105.213 180.393 103.581L170.886 104.109L161.38 104.637C161.451 105.925 161.487 107.195 161.487 108.475L171.009 108.475ZM170.886 104.109L180.396 103.643C180.295 101.581 179.97 99.4913 179.379 97.4241L170.224 100.04L161.069 102.655C161.236 103.238 161.342 103.879 161.376 104.575L170.886 104.109ZM170.224 100.04L179.391 97.466C178.507 94.3173 176.881 91.2729 174.234 88.8254C171.583 86.3742 168.409 84.9864 165.169 84.3628L163.37 93.7126L161.57 103.062C161.76 103.099 161.786 103.126 161.704 103.087C161.614 103.044 161.465 102.955 161.307 102.808C161.148 102.662 161.052 102.524 161.008 102.448C160.968 102.379 161.002 102.415 161.057 102.614L170.224 100.04ZM163.37 93.7126L165.133 84.3558C162.424 83.8456 159.455 83.6643 156.321 84.1344L157.733 93.5505L159.145 102.967C159.796 102.869 160.585 102.877 161.607 103.069L163.37 93.7126ZM157.733 93.5505L156.309 84.1361C151.786 84.8202 147.354 86.7436 143.718 90.4782L150.541 97.1199L157.363 103.762C157.702 103.413 158.137 103.119 159.157 102.965L157.733 93.5505ZM150.541 97.1199L143.74 90.4558C142.53 91.6904 141.324 93.4029 141.216 93.5443L148.783 99.323L156.35 105.102C156.542 104.85 156.725 104.604 156.856 104.427C157.001 104.23 157.098 104.1 157.188 103.982C157.368 103.747 157.399 103.725 157.341 103.784L150.541 97.1199ZM148.783 99.323L154.57 91.7622C155.863 92.7518 156.574 93.8679 156.916 94.5035C157.062 94.7744 157.156 94.9889 157.139 94.9509C157.13 94.9316 157.14 94.9535 157.122 94.9137C157.113 94.8924 157.097 94.8565 157.078 94.8146C157.04 94.7325 156.977 94.5955 156.895 94.432L148.378 98.6882L139.861 102.945C139.776 102.776 139.696 102.594 139.77 102.757C139.803 102.831 139.948 103.158 140.153 103.538C140.614 104.393 141.473 105.719 142.996 106.884L148.783 99.323ZM148.378 98.6882L156.894 94.4301C154.626 89.8937 150.894 86.6912 146.21 85.0678L143.092 94.0642L139.973 103.061C140.052 103.088 140.074 103.103 140.056 103.092C140.036 103.081 139.994 103.054 139.944 103.011C139.894 102.967 139.858 102.926 139.838 102.9C139.819 102.875 139.83 102.884 139.861 102.946L148.378 98.6882ZM69.1023 111.367L68.6974 120.88C69.3019 120.905 69.9075 120.935 70.5438 120.965C71.1716 120.995 71.8301 121.027 72.4963 121.056L72.9011 111.543L73.3059 102.03C72.7015 102.004 72.0959 101.975 71.4595 101.944C70.8318 101.914 70.1733 101.882 69.5071 101.854L69.1023 111.367ZM72.9011 111.543L72.5013 121.056C71.7464 121.024 68.532 120.801 66.0096 117.866C63.6129 115.077 63.7733 112.027 63.7948 111.557L73.3064 111.989L82.818 112.421C82.8529 111.653 82.9727 108.387 80.4511 105.453C77.8037 102.373 74.3799 102.075 73.3009 102.03L72.9011 111.543ZM73.3064 111.989L63.7935 111.586C63.8041 111.334 63.855 111.163 63.9121 111.032C63.9704 110.899 64.0991 110.663 64.382 110.394C64.6845 110.106 65.1615 109.787 65.7959 109.612C66.4527 109.43 66.9585 109.491 67.1601 109.54L64.8972 118.789L62.6342 128.037C68.4563 129.462 73.8138 127.707 77.5122 124.186C80.8886 120.972 82.6423 116.565 82.8192 112.392L73.3064 111.989ZM64.8972 118.789L67.112 109.529C67.5715 109.638 68.4406 109.932 69.3567 110.693C70.342 111.512 71.0187 112.574 71.3542 113.636L62.2751 116.505L53.196 119.373C54.8445 124.591 59.0284 127.175 62.6823 128.049L64.8972 118.789ZM62.2751 116.505L71.3494 113.621C72.2052 116.314 71.1071 119.006 69.0694 120.415L63.654 112.584L58.2387 104.752C53.6594 107.919 51.4257 113.802 53.2008 119.388L62.2751 116.505ZM63.654 112.584L69.1215 120.379C68.272 120.975 67.6079 121.009 67.8633 120.977L66.6823 111.529L65.5013 102.081C63.5939 102.32 60.8474 102.922 58.1866 104.789L63.654 112.584ZM66.6823 111.529L67.9616 120.964C68.3193 120.916 68.5092 120.894 68.6411 120.884C68.7623 120.874 68.7405 120.882 68.6268 120.876L69.1023 111.367L69.5777 101.857C67.805 101.769 66.2238 101.983 65.4031 102.094L66.6823 111.529Z" fill="url(#paint0_radial_119_212)" mask="url(#path-1-outside-1_119_212)"/>
</g>
<path d="M88.4461 18.905C100.958 6.39368 121.242 6.39359 133.754 18.905L201.716 86.867C214.227 99.3785 214.227 119.664 201.716 132.176L133.754 200.137C121.242 212.649 100.958 212.649 88.4461 200.137L20.4832 132.176C7.97172 119.664 7.97178 99.3785 20.4832 86.867L88.4461 18.905ZM106.615 93.4812C103.087 93.2379 99.6523 93.6576 96.3807 95.0095C92.0954 96.7806 89.0266 99.7815 87.5125 104.216C86.6743 106.703 86.4445 109.258 86.7283 111.881C87.0257 114.503 87.8236 116.937 89.3377 119.114C91.5277 122.25 94.5694 124.197 98.1922 125.292C101.383 126.252 104.655 126.454 107.967 126.076C109.711 125.873 111.428 125.549 113.118 125.049C113.564 124.913 113.713 124.71 113.699 124.251C113.618 121.899 113.563 119.56 113.496 117.208C113.482 117.113 113.523 116.991 113.32 116.937C113.104 117.018 112.86 117.126 112.617 117.22C110.211 118.153 107.724 118.573 105.155 118.168C102.086 117.668 99.7342 116.099 98.4363 113.192C97.7469 111.651 97.6928 110.015 97.9227 108.352C98.3824 104.986 100.626 102.39 103.938 101.606C106.547 100.998 109.089 101.35 111.522 102.431C111.901 102.594 112.252 102.77 112.631 102.959C112.82 102.567 112.807 102.188 112.834 101.837C113.023 99.8765 113.212 97.916 113.415 95.9558C113.496 95.1583 113.523 95.1581 112.753 94.8338C110.792 94.0091 108.738 93.6299 106.615 93.4812ZM71.075 93.5222C68.9932 93.2925 66.9245 93.3602 64.8562 93.5359C62.0174 93.7793 59.2459 94.3464 56.5828 95.3738C55.9612 95.617 55.9472 95.6175 55.9607 96.3064C56.0013 98.3072 56.0561 100.295 56.1101 102.296C56.1101 102.458 56.0153 102.674 56.2586 102.809C56.7452 102.593 57.2184 102.35 57.7185 102.134C61.0035 100.768 64.4508 100.417 67.9656 100.674C68.8579 100.741 69.7238 100.971 70.535 101.349C72.2517 102.134 73.0898 103.513 73.2791 105.351C73.3467 106.014 73.2922 106.054 72.6434 105.96C69.4394 105.487 66.2351 105.527 63.0447 106C60.8412 106.324 58.7052 106.906 56.7586 108.028C54.2848 109.448 52.6896 111.529 52.2029 114.382C52.1624 114.638 52.1759 114.936 51.8924 115.085V117.518C52.1083 117.68 52.1487 117.924 52.1892 118.167C52.7029 121.29 54.4468 123.467 57.2586 124.845C59.2324 125.819 61.3553 126.184 63.5183 126.238C65.0053 126.279 66.4788 126.09 67.8982 125.576C70.1829 124.765 71.86 123.223 73.2254 121.276C73.3874 121.046 73.4689 120.749 73.9012 120.6C73.9012 120.965 73.8877 121.249 73.9012 121.533C73.9552 122.696 74.0364 123.845 74.0769 125.008C74.0905 125.345 74.1983 125.522 74.5496 125.481C74.6576 125.468 74.7658 125.481 74.8738 125.481H83.2156C83.4588 125.481 83.7019 125.535 83.9451 125.373C83.864 124.643 83.743 123.899 83.6619 123.156C83.4186 120.817 83.3779 118.465 83.3914 116.126V106.325C83.3914 105.379 83.3504 104.432 83.1746 103.499C82.5662 100.106 80.9168 97.4149 77.9021 95.617C75.7933 94.3599 73.4812 93.7926 71.075 93.5222ZM143.092 94.0642C140.645 93.2126 138.157 93.1989 135.656 93.7127C132.182 94.4292 129.437 96.2274 127.721 99.4314C127.653 99.5666 127.612 99.7559 127.302 99.783V94.9158C127.302 94.1724 127.301 94.159 126.557 94.159H118.217C117.46 94.159 117.446 94.1589 117.446 94.9021V124.806C117.446 125.496 117.46 125.51 118.163 125.51H127.558C128.261 125.51 128.262 125.496 128.275 124.806V112.004C128.275 110.814 128.369 109.638 128.586 108.462C128.843 107.015 129.289 105.636 130.181 104.433C131.533 102.622 133.723 102.162 135.535 102.554C136.995 102.865 137.819 103.92 138.305 105.258C138.725 106.407 138.82 107.624 138.82 108.841V124.482C138.82 124.671 138.834 124.86 138.82 125.05C138.793 125.415 138.982 125.523 139.306 125.496C139.442 125.482 139.577 125.496 139.712 125.496H149.27C149.54 125.509 149.662 125.374 149.648 125.104C149.635 124.915 149.648 124.725 149.648 124.536C149.648 120.561 149.662 116.6 149.648 112.626C149.648 111.463 149.675 110.3 149.838 109.151C150.027 107.772 150.351 106.448 151.027 105.218C151.676 104.055 152.568 103.136 153.88 102.73C156.84 101.824 159.126 102.838 159.883 105.961C160.085 106.812 160.18 107.665 160.18 108.53V125.144C160.18 125.36 160.261 125.496 160.504 125.496H170.143C171.09 125.496 171.009 125.55 171.009 124.603C171.009 119.223 170.995 113.856 171.009 108.475C171.009 107.015 170.968 105.569 170.887 104.109C170.819 102.73 170.603 101.365 170.224 100.04C169.238 96.5249 166.952 94.4021 163.37 93.7127C161.505 93.3612 159.626 93.2667 157.733 93.5506C154.962 93.9696 152.528 95.0785 150.541 97.1199C149.878 97.7958 149.351 98.5795 148.783 99.323C148.553 99.1474 148.486 98.9044 148.378 98.6883C147.242 96.4171 145.471 94.8889 143.092 94.0642ZM69.1014 111.367C70.372 111.421 71.6295 111.489 72.9002 111.543C73.2246 111.556 73.32 111.692 73.3064 111.989C73.1442 115.815 69.9804 120.033 64.8973 118.789C63.6536 118.491 62.6798 117.789 62.2742 116.505C61.8146 115.058 62.3825 113.463 63.6531 112.584C64.5588 111.948 65.6 111.664 66.6814 111.529C67.479 111.421 68.2903 111.326 69.1014 111.367Z" fill="#00002C"/>
<g filter="url(#filter1_iii_119_212)">
<path d="M88.4454 18.905C100.957 6.3936 121.242 6.39367 133.753 18.905L201.716 86.867C214.227 99.3785 214.227 119.664 201.716 132.176L133.753 200.138C121.242 212.649 100.957 212.649 88.4454 200.138L20.4835 132.176C7.97198 119.664 7.97198 99.3785 20.4835 86.867L88.4454 18.905ZM106.614 93.4812C103.086 93.2379 99.6525 93.6577 96.381 95.0095C92.0954 96.7805 89.0259 99.7814 87.5118 104.216C86.6737 106.703 86.4438 109.258 86.7276 111.881C87.025 114.503 87.8229 116.937 89.337 119.114C91.5271 122.25 94.5694 124.197 98.1925 125.292C101.383 126.252 104.655 126.454 107.967 126.076C109.711 125.873 111.428 125.549 113.117 125.049C113.563 124.913 113.712 124.71 113.698 124.251C113.617 121.899 113.564 119.56 113.496 117.208C113.483 117.113 113.523 116.991 113.32 116.937C113.104 117.018 112.861 117.126 112.617 117.22C110.211 118.153 107.723 118.572 105.154 118.167C102.086 117.667 99.7334 116.099 98.4356 113.192C97.7462 111.651 97.6921 110.015 97.922 108.352C98.3816 104.986 100.626 102.39 103.938 101.606C106.547 100.998 109.088 101.35 111.522 102.431C111.9 102.594 112.252 102.769 112.631 102.959C112.82 102.567 112.806 102.188 112.833 101.837C113.022 99.8765 113.212 97.916 113.415 95.9558C113.496 95.1582 113.523 95.1582 112.752 94.8338C110.792 94.0091 108.737 93.6299 106.614 93.4812ZM71.0753 93.5222C68.9934 93.2924 66.9249 93.3602 64.8565 93.5359C62.0177 93.7792 59.2462 94.3465 56.5831 95.3738C55.9614 95.6171 55.9475 95.6174 55.961 96.3064C56.0016 98.3072 56.0554 100.295 56.1095 102.296C56.1095 102.458 56.0149 102.674 56.2579 102.809C56.7445 102.593 57.2178 102.35 57.7179 102.134C61.003 100.768 64.451 100.417 67.9659 100.674C68.8581 100.741 69.7232 100.971 70.5343 101.349C72.2512 102.133 73.0891 103.513 73.2784 105.351C73.346 106.013 73.2921 106.054 72.6436 105.96C69.4397 105.487 66.2354 105.527 63.045 106C60.8414 106.324 58.7046 106.906 56.7579 108.028C54.2842 109.448 52.6889 111.529 52.2022 114.382C52.1617 114.638 52.1754 114.936 51.8917 115.085V117.518C52.1077 117.68 52.148 117.924 52.1886 118.167C52.7023 121.29 54.4469 123.467 57.2589 124.845C59.2325 125.819 61.3548 126.184 63.5177 126.238C65.0048 126.279 66.479 126.09 67.8985 125.576C70.1831 124.765 71.8593 123.223 73.2247 121.276C73.3868 121.046 73.4681 120.749 73.9005 120.6C73.9005 120.965 73.887 121.249 73.9005 121.533C73.9545 122.696 74.0357 123.845 74.0763 125.008C74.0898 125.345 74.1978 125.522 74.5489 125.481C74.6571 125.468 74.766 125.481 74.8741 125.481H83.2149C83.4583 125.481 83.7021 125.535 83.9454 125.373C83.8643 124.643 83.7423 123.899 83.6612 123.156C83.4179 120.817 83.3772 118.465 83.3907 116.126V106.324C83.3907 105.378 83.3506 104.431 83.1749 103.499C82.5665 100.106 80.9171 97.415 77.9024 95.617C75.7935 94.3597 73.4816 93.7926 71.0753 93.5222ZM143.091 94.0642C140.644 93.2126 138.156 93.199 135.655 93.7127C132.181 94.4292 129.437 96.2275 127.72 99.4314C127.652 99.5666 127.612 99.756 127.301 99.783V94.9158C127.301 94.1725 127.301 94.159 126.558 94.159H118.216C117.459 94.159 117.445 94.159 117.445 94.9021V124.806C117.445 125.496 117.459 125.51 118.162 125.51H127.558C128.261 125.51 128.261 125.496 128.275 124.806V112.004C128.275 110.814 128.369 109.638 128.585 108.462C128.842 107.015 129.289 105.636 130.181 104.433C131.533 102.622 133.723 102.162 135.534 102.554C136.994 102.865 137.819 103.919 138.306 105.258C138.725 106.407 138.819 107.624 138.819 108.841V124.482C138.819 124.671 138.833 124.86 138.819 125.05C138.792 125.415 138.981 125.523 139.306 125.496C139.441 125.482 139.576 125.496 139.711 125.496H149.27C149.54 125.509 149.661 125.374 149.648 125.104C149.634 124.915 149.648 124.725 149.648 124.536C149.648 120.561 149.661 116.6 149.648 112.626C149.648 111.463 149.675 110.3 149.837 109.151C150.026 107.772 150.351 106.448 151.026 105.218C151.675 104.055 152.568 103.136 153.879 102.73C156.84 101.825 159.125 102.838 159.882 105.961C160.085 106.812 160.18 107.665 160.18 108.53V125.144C160.18 125.361 160.261 125.496 160.504 125.496H170.143C171.089 125.496 171.008 125.55 171.008 124.603C171.008 119.223 170.994 113.856 171.008 108.475C171.008 107.015 170.968 105.569 170.887 104.109C170.819 102.73 170.602 101.365 170.224 100.04C169.237 96.525 166.953 94.4022 163.37 93.7127C161.505 93.3612 159.625 93.2667 157.733 93.5506C154.961 93.9697 152.527 95.0785 150.54 97.1199C149.878 97.7958 149.35 98.5796 148.782 99.323C148.553 99.1474 148.485 98.9044 148.377 98.6883C147.241 96.4171 145.47 94.8889 143.091 94.0642ZM69.1016 111.367C70.3723 111.421 71.6298 111.489 72.9005 111.543C73.2246 111.556 73.3193 111.692 73.3057 111.989C73.1435 115.815 69.9797 120.033 64.8966 118.789C63.6531 118.491 62.6801 117.789 62.2745 116.505C61.8149 115.058 62.3826 113.463 63.6534 112.584C64.5591 111.948 65.6003 111.664 66.6817 111.529C67.4792 111.421 68.2906 111.326 69.1016 111.367Z" fill="white" fill-opacity="0.01"/>
</g>
<defs>
<filter id="filter0_di_119_212" x="3.43323e-05" y="-1.05263" width="234.832" height="238.516" filterUnits="userSpaceOnUse" color-interpolation-filters="sRGB">
<feFlood flood-opacity="0" result="BackgroundImageFix"/>
<feColorMatrix in="SourceAlpha" type="matrix" values="0 0 0 0 0 0 0 0 0 0 0 0 0 0 0 0 0 0 127 0" result="hardAlpha"/>
<feOffset dx="6.31578" dy="10.5263"/>
<feGaussianBlur stdDeviation="3.94736"/>
<feComposite in2="hardAlpha" operator="out"/>
<feColorMatrix type="matrix" values="0 0 0 0 0 0 0 0 0 0 0 0 0 0 0 0 0 0 0.25 0"/>
<feBlend mode="normal" in2="BackgroundImageFix" result="effect1_dropShadow_119_212"/>
<feBlend mode="normal" in="SourceGraphic" in2="effect1_dropShadow_119_212" result="shape"/>
<feColorMatrix in="SourceAlpha" type="matrix" values="0 0 0 0 0 0 0 0 0 0 0 0 0 0 0 0 0 0 127 0" result="hardAlpha"/>
<feOffset dy="-1.05263"/>
<feGaussianBlur stdDeviation="0.789472"/>
<feComposite in2="hardAlpha" operator="arithmetic" k2="-1" k3="1"/>
<feColorMatrix type="matrix" values="0 0 0 0 0 0 0 0 0 0 0 0 0 0 0 0 0 0 1 0"/>
<feBlend mode="normal" in2="shape" result="effect2_innerShadow_119_212"/>
</filter>
<filter id="filter1_iii_119_212" x="7.94196" y="8.46885" width="205.263" height="202.631" filterUnits="userSpaceOnUse" color-interpolation-filters="sRGB">
<feFlood flood-opacity="0" result="BackgroundImageFix"/>
<feBlend mode="normal" in="SourceGraphic" in2="BackgroundImageFix" result="shape"/>
<feColorMatrix in="SourceAlpha" type="matrix" values="0 0 0 0 0 0 0 0 0 0 0 0 0 0 0 0 0 0 127 0" result="hardAlpha"/>
<feOffset dx="3.15789" dy="1.57894"/>
<feGaussianBlur stdDeviation="1.05263"/>
<feComposite in2="hardAlpha" operator="arithmetic" k2="-1" k3="1"/>
<feColorMatrix type="matrix" values="0 0 0 0 0 0 0 0 0 0 0 0 0 0 0 0 0 0 0.35 0"/>
<feBlend mode="normal" in2="shape" result="effect1_innerShadow_119_212"/>
<feColorMatrix in="SourceAlpha" type="matrix" values="0 0 0 0 0 0 0 0 0 0 0 0 0 0 0 0 0 0 127 0" result="hardAlpha"/>
<feOffset dx="-3.15789" dy="-1.05263"/>
<feGaussianBlur stdDeviation="1.8421"/>
<feComposite in2="hardAlpha" operator="arithmetic" k2="-1" k3="1"/>
<feColorMatrix type="matrix" values="0 0 0 0 1 0 0 0 0 1 0 0 0 0 1 0 0 0 1 0"/>
<feBlend mode="normal" in2="effect1_innerShadow_119_212" result="effect2_innerShadow_119_212"/>
<feColorMatrix in="SourceAlpha" type="matrix" values="0 0 0 0 0 0 0 0 0 0 0 0 0 0 0 0 0 0 127 0" result="hardAlpha"/>
<feOffset dx="-1.57894"/>
<feGaussianBlur stdDeviation="0.526315"/>
<feComposite in2="hardAlpha" operator="arithmetic" k2="-1" k3="1"/>
<feColorMatrix type="matrix" values="0 0 0 0 1 0 0 0 0 1 0 0 0 0 1 0 0 0 1 0"/>
<feBlend mode="normal" in2="effect2_innerShadow_119_212" result="effect3_innerShadow_119_212"/>
</filter>
<radialGradient id="paint0_radial_119_212" cx="0" cy="0" r="1" gradientTransform="matrix(151.842 138.947 -138.947 151.842 32.6794 46.6267)" gradientUnits="userSpaceOnUse">
<stop stop-color="#FDF5E5"/>
<stop offset="0.735" stop-color="#CEA662"/>
<stop offset="0.96" stop-color="#583C0D"/>
</radialGradient>
</defs>
</svg>
