<svg width="764" height="348" viewBox="0 0 764 348" fill="none" xmlns="http://www.w3.org/2000/svg">
<g opacity="0.9" filter="url(#filter0_f_717_12855)">
<path d="M162.801 128.323V197.946C155.688 199.479 149.392 203.591 145.126 209.49C140.861 215.389 138.927 222.658 139.697 229.899C140.468 237.139 143.888 243.838 149.299 248.707C154.71 253.575 161.73 256.269 169.007 256.269C176.284 256.269 183.304 253.575 188.715 248.707C194.126 243.838 197.546 237.139 198.316 229.899C199.086 222.658 197.153 215.389 192.887 209.49C188.622 203.591 182.326 199.479 175.212 197.946V173.224H234.162C242.388 173.214 250.274 169.941 256.091 164.121C261.907 158.301 265.179 150.41 265.188 142.18V127.942C272.206 126.025 278.267 121.578 282.204 115.458C286.141 109.338 287.677 101.976 286.516 94.7912C285.354 87.6059 281.578 81.1044 275.913 76.538C270.248 71.9715 263.096 69.663 255.832 70.0566C248.568 70.4502 241.706 73.5182 236.568 78.67C231.429 83.8218 228.376 90.6934 227.997 97.9622C227.618 105.231 229.939 112.383 234.514 118.042C239.089 123.701 245.594 127.467 252.778 128.615V142.18C252.772 147.118 250.809 151.852 247.319 155.344C243.829 158.836 239.097 160.8 234.162 160.806H175.212V128.323C182.326 126.79 188.622 122.678 192.887 116.779C197.153 110.88 199.086 103.61 198.316 96.3699C197.546 89.1296 194.126 82.4304 188.715 77.5619C183.304 72.6935 176.284 70 169.007 70C161.73 70 154.71 72.6935 149.299 77.5619C143.888 82.4304 140.468 89.1296 139.697 96.3699C138.927 103.61 140.861 110.88 145.126 116.779C149.392 122.678 155.688 126.79 162.801 128.323ZM240.367 99.494C240.367 96.1171 241.368 92.816 243.243 90.0081C245.118 87.2003 247.783 85.0118 250.901 83.7195C254.02 82.4272 257.451 82.0891 260.761 82.7479C264.071 83.4067 267.112 85.0329 269.498 87.4208C271.885 89.8086 273.51 92.851 274.168 96.163C274.827 99.4751 274.489 102.908 273.197 106.028C271.906 109.148 269.719 111.815 266.912 113.691C264.106 115.567 260.807 116.568 257.432 116.568C252.908 116.563 248.57 114.763 245.371 111.562C242.172 108.361 240.372 104.021 240.367 99.494ZM186.071 226.775C186.071 230.152 185.07 233.453 183.195 236.261C181.32 239.068 178.655 241.257 175.537 242.549C172.419 243.841 168.988 244.18 165.678 243.521C162.367 242.862 159.327 241.236 156.94 238.848C154.554 236.46 152.929 233.418 152.27 230.106C151.612 226.794 151.95 223.36 153.241 220.241C154.533 217.121 156.72 214.454 159.526 212.578C162.332 210.702 165.632 209.7 169.007 209.7C173.531 209.705 177.868 211.506 181.068 214.707C184.267 217.908 186.066 222.248 186.071 226.775ZM169.007 82.4198C172.382 82.4198 175.681 83.4212 178.487 85.2974C181.293 87.1735 183.481 89.8401 184.772 92.96C186.064 96.0799 186.402 99.513 185.743 102.825C185.085 106.137 183.46 109.179 181.073 111.567C178.687 113.955 175.646 115.581 172.336 116.24C169.026 116.899 165.595 116.561 162.476 115.269C159.358 113.976 156.693 111.788 154.818 108.98C152.943 106.172 151.942 102.871 151.942 99.494C151.947 94.9672 153.747 90.6273 156.946 87.4263C160.145 84.2254 164.482 82.4249 169.007 82.4198Z" fill="#EFE28B"/>
<path d="M70 278V267.173H79.4234C82.138 267.173 84.077 266.591 85.2403 265.427C86.4813 264.34 87.1018 262.478 87.1018 259.839V205.122H72.4431V194.645H87.1018V186.612C87.1018 180.17 88.6917 175.552 91.8716 172.758C95.0516 169.964 99.5888 168.567 105.483 168.567H119.56V179.394H106.996C104.281 179.394 102.342 179.937 101.179 181.024C100.015 182.11 99.4337 184.012 99.4337 186.728V194.645H119.56V205.122H99.4337V259.955C99.4337 266.397 97.8437 271.015 94.6638 273.809C91.4839 276.603 86.9079 278 80.9358 278H70Z" fill="#EFE28B"/>
<path d="M222.171 252.388V241.678H236.248V209.197C236.248 206.636 235.007 205.355 232.525 205.355H223.334V194.645H237.178C240.358 194.645 242.957 195.576 244.973 197.439C246.99 199.224 247.998 201.746 247.998 205.006V206.403H248.58C249.433 202.057 251.255 198.797 254.048 196.624C256.917 194.373 261.067 193.248 266.496 193.248H275.454V206.287H262.889C258.313 206.287 254.784 207.878 252.303 211.06C249.821 214.242 248.58 218.045 248.58 222.469V241.678H266.496V252.388H222.171Z" fill="#EFE28B"/>
<path d="M294.372 252.388V168.567H306.703V218.86L328.808 194.645H344.281L320.199 220.257V221.188L347.422 252.388H332.414L306.703 222.701V252.388H294.372Z" fill="#EFE28B"/>
<path d="M393.912 252.388C388.25 252.388 383.752 251.03 380.417 248.313C377.082 245.519 375.414 240.591 375.414 233.528V205.122H360.872V194.645H369.481C373.436 194.645 375.763 192.704 376.461 188.824L378.206 179.51H387.746V194.645H410.548V205.122H387.746V233.296C387.746 236.322 388.405 238.457 389.724 239.698C391.12 240.863 393.485 241.445 396.82 241.445H410.316V252.388H393.912Z" fill="#EFE28B"/>
<path d="M457.387 253.785C451.881 253.785 446.956 252.543 442.612 250.06C438.269 247.576 434.856 244.084 432.375 239.582C429.893 235.003 428.652 229.648 428.652 223.516C428.652 217.385 429.893 212.069 432.375 207.567C434.856 202.988 438.269 199.457 442.612 196.973C446.956 194.49 451.919 193.248 457.504 193.248C463.088 193.248 468.013 194.49 472.279 196.973C476.622 199.457 479.996 202.988 482.4 207.567C484.882 212.069 486.123 217.385 486.123 223.516C486.123 229.648 484.882 235.003 482.4 239.582C479.918 244.084 476.506 247.576 472.162 250.06C467.897 252.543 462.972 253.785 457.387 253.785ZM457.387 242.027C460.335 242.027 463.049 241.367 465.531 240.048C468.013 238.728 469.991 236.71 471.464 233.994C473.015 231.2 473.791 227.707 473.791 223.516C473.791 219.248 473.015 215.755 471.464 213.039C469.991 210.322 468.013 208.304 465.531 206.985C463.127 205.666 460.451 205.006 457.504 205.006C454.556 205.006 451.842 205.666 449.36 206.985C446.878 208.304 444.862 210.322 443.31 213.039C441.837 215.755 441.1 219.248 441.1 223.516C441.1 229.881 442.69 234.576 445.87 237.603C449.127 240.552 452.966 242.027 457.387 242.027Z" fill="#EFE28B"/>
<path d="M530.286 253.785C526.02 253.785 522.414 252.931 519.467 251.224C516.597 249.439 514.387 246.994 512.835 243.89H512.137L511.09 252.388H500.503V168.567H512.835V202.096C514.231 199.767 516.442 197.71 519.467 195.925C522.491 194.14 526.098 193.248 530.286 193.248C535.095 193.248 539.399 194.412 543.2 196.74C547 198.991 549.986 202.367 552.158 206.869C554.407 211.37 555.532 216.919 555.532 223.516C555.532 230.113 554.407 235.663 552.158 240.164C549.986 244.666 547 248.081 543.2 250.409C539.399 252.66 535.095 253.785 530.286 253.785ZM527.727 242.027C532.148 242.027 535.793 240.513 538.663 237.487C541.61 234.382 543.083 229.764 543.083 223.633C543.083 217.424 541.61 212.767 538.663 209.663C535.793 206.558 532.148 205.006 527.727 205.006C523.306 205.006 519.622 206.558 516.675 209.663C513.805 212.69 512.37 217.307 512.37 223.516C512.37 229.648 513.805 234.266 516.675 237.37C519.622 240.475 523.306 242.027 527.727 242.027Z" fill="#EFE28B"/>
<path d="M597.601 253.785C592.016 253.785 587.092 252.543 582.826 250.06C578.56 247.499 575.225 243.967 572.821 239.466C570.416 234.964 569.214 229.725 569.214 223.749C569.214 217.696 570.378 212.379 572.704 207.8C575.109 203.221 578.444 199.651 582.709 197.09C587.053 194.528 592.055 193.248 597.717 193.248C603.301 193.248 608.11 194.528 612.143 197.09C616.176 199.573 619.278 202.91 621.45 207.101C623.699 211.293 624.824 215.91 624.824 220.955C624.824 221.731 624.824 222.585 624.824 223.516C624.824 224.37 624.785 225.34 624.708 226.427H581.313C581.701 231.782 583.446 235.857 586.549 238.651C589.651 241.367 593.296 242.725 597.484 242.725C601.13 242.725 603.999 241.988 606.093 240.513C608.265 238.961 609.855 236.866 610.863 234.227H623.312C621.916 239.737 619.007 244.394 614.586 248.197C610.165 251.922 604.503 253.785 597.601 253.785ZM597.601 203.958C593.8 203.958 590.427 205.122 587.479 207.451C584.532 209.701 582.632 212.884 581.779 216.997H612.492C612.182 213.116 610.669 209.973 607.955 207.567C605.24 205.161 601.789 203.958 597.601 203.958Z" fill="#EFE28B"/>
<path d="M640.717 252.388V241.678H654.794V209.197C654.794 206.636 653.553 205.355 651.071 205.355H641.88V194.645H655.725C658.904 194.645 661.503 195.576 663.519 197.439C665.536 199.224 666.544 201.746 666.544 205.006V206.403H667.126C667.979 202.057 669.802 198.797 672.594 196.624C675.463 194.373 679.613 193.248 685.042 193.248H694V206.287H681.435C676.859 206.287 673.33 207.878 670.849 211.06C668.367 214.242 667.126 218.045 667.126 222.469V241.678H685.042V252.388H640.717Z" fill="#EFE28B"/>
</g>
<path d="M164.922 128.323V197.946C157.808 199.479 151.512 203.591 147.246 209.49C142.981 215.389 141.047 222.658 141.817 229.899C142.588 237.139 146.008 243.838 151.419 248.707C156.83 253.575 163.85 256.269 171.127 256.269C178.404 256.269 185.424 253.575 190.835 248.707C196.246 243.838 199.666 237.139 200.436 229.899C201.207 222.658 199.273 215.389 195.007 209.49C190.742 203.591 184.446 199.479 177.332 197.946V173.224H236.282C244.508 173.214 252.394 169.941 258.211 164.121C264.027 158.301 267.299 150.41 267.308 142.18V127.942C274.326 126.025 280.387 121.578 284.324 115.458C288.261 109.338 289.797 101.976 288.636 94.7912C287.474 87.6059 283.698 81.1044 278.033 76.538C272.368 71.9715 265.216 69.663 257.952 70.0566C250.688 70.4502 243.826 73.5182 238.688 78.67C233.549 83.8218 230.496 90.6934 230.117 97.9622C229.738 105.231 232.059 112.383 236.634 118.042C241.209 123.701 247.714 127.467 254.898 128.615V142.18C254.892 147.118 252.929 151.852 249.439 155.344C245.949 158.836 241.218 160.8 236.282 160.806H177.332V128.323C184.446 126.79 190.742 122.678 195.007 116.779C199.273 110.88 201.207 103.61 200.436 96.3699C199.666 89.1296 196.246 82.4304 190.835 77.5619C185.424 72.6935 178.404 70 171.127 70C163.85 70 156.83 72.6935 151.419 77.5619C146.008 82.4304 142.588 89.1296 141.817 96.3699C141.047 103.61 142.981 110.88 147.246 116.779C151.512 122.678 157.808 126.79 164.922 128.323ZM242.487 99.494C242.487 96.1171 243.488 92.816 245.363 90.0081C247.238 87.2003 249.903 85.0118 253.022 83.7195C256.14 82.4272 259.571 82.0891 262.881 82.7479C266.191 83.4067 269.232 85.0329 271.618 87.4208C274.005 89.8086 275.63 92.851 276.288 96.163C276.947 99.4751 276.609 102.908 275.317 106.028C274.026 109.148 271.839 111.815 269.032 113.691C266.226 115.567 262.927 116.568 259.552 116.568C255.028 116.563 250.69 114.763 247.491 111.562C244.292 108.361 242.492 104.021 242.487 99.494ZM188.191 226.775C188.191 230.152 187.191 233.453 185.315 236.261C183.44 239.068 180.775 241.257 177.657 242.549C174.539 243.841 171.108 244.18 167.798 243.521C164.488 242.862 161.447 241.236 159.06 238.848C156.674 236.46 155.049 233.418 154.39 230.106C153.732 226.794 154.07 223.36 155.361 220.241C156.653 217.121 158.84 214.454 161.646 212.578C164.453 210.702 167.752 209.7 171.127 209.7C175.651 209.705 179.989 211.506 183.188 214.707C186.387 217.908 188.186 222.248 188.191 226.775ZM171.127 82.4198C174.502 82.4198 177.801 83.4212 180.607 85.2974C183.414 87.1735 185.601 89.8401 186.892 92.96C188.184 96.0799 188.522 99.513 187.863 102.825C187.205 106.137 185.58 109.179 183.193 111.567C180.807 113.955 177.766 115.581 174.456 116.24C171.146 116.899 167.715 116.561 164.597 115.269C161.478 113.976 158.813 111.788 156.938 108.98C155.063 106.172 154.062 102.871 154.062 99.494C154.067 94.9672 155.867 90.6273 159.066 87.4263C162.265 84.2254 166.603 82.4249 171.127 82.4198Z" fill="#EFE28B"/>
<path d="M72.1201 278V267.173H81.5435C84.2581 267.173 86.1971 266.591 87.3605 265.427C88.6014 264.34 89.2219 262.478 89.2219 259.839V205.122H74.5632V194.645H89.2219V186.612C89.2219 180.17 90.8118 175.552 93.9918 172.758C97.1717 169.964 101.709 168.567 107.603 168.567H121.68V179.394H109.116C106.401 179.394 104.462 179.937 103.299 181.024C102.135 182.11 101.554 184.012 101.554 186.728V194.645H121.68V205.122H101.554V259.955C101.554 266.397 99.9638 271.015 96.7839 273.809C93.604 276.603 89.028 278 83.0559 278H72.1201Z" fill="#EFE28B"/>
<path d="M224.291 252.388V241.678H238.368V209.197C238.368 206.636 237.127 205.355 234.645 205.355H225.454V194.645H239.299C242.479 194.645 245.077 195.576 247.093 197.439C249.11 199.224 250.118 201.746 250.118 205.006V206.403H250.7C251.553 202.057 253.376 198.797 256.168 196.624C259.037 194.373 263.187 193.248 268.616 193.248H277.574V206.287H265.009C260.433 206.287 256.905 207.878 254.423 211.06C251.941 214.242 250.7 218.045 250.7 222.469V241.678H268.616V252.388H224.291Z" fill="#EFE28B"/>
<path d="M296.492 252.388V168.567H308.824V218.86L330.928 194.645H346.401L322.319 220.257V221.188L349.542 252.388H334.534L308.824 222.701V252.388H296.492Z" fill="#EFE28B"/>
<path d="M396.032 252.388C390.37 252.388 385.872 251.03 382.537 248.313C379.202 245.519 377.534 240.591 377.534 233.528V205.122H362.992V194.645H371.601C375.556 194.645 377.883 192.704 378.581 188.824L380.326 179.51H389.866V194.645H412.668V205.122H389.866V233.296C389.866 236.322 390.525 238.457 391.844 239.698C393.24 240.863 395.606 241.445 398.941 241.445H412.436V252.388H396.032Z" fill="#EFE28B"/>
<path d="M459.507 253.785C454.001 253.785 449.076 252.543 444.732 250.06C440.389 247.576 436.977 244.084 434.495 239.582C432.013 235.003 430.772 229.648 430.772 223.516C430.772 217.385 432.013 212.069 434.495 207.567C436.977 202.988 440.389 199.457 444.732 196.973C449.076 194.49 454.04 193.248 459.624 193.248C465.208 193.248 470.133 194.49 474.399 196.973C478.742 199.457 482.116 202.988 484.52 207.567C487.002 212.069 488.243 217.385 488.243 223.516C488.243 229.648 487.002 235.003 484.52 239.582C482.038 244.084 478.626 247.576 474.282 250.06C470.017 252.543 465.092 253.785 459.507 253.785ZM459.507 242.027C462.455 242.027 465.169 241.367 467.651 240.048C470.133 238.728 472.111 236.71 473.584 233.994C475.136 231.2 475.911 227.707 475.911 223.516C475.911 219.248 475.136 215.755 473.584 213.039C472.111 210.322 470.133 208.304 467.651 206.985C465.247 205.666 462.571 205.006 459.624 205.006C456.677 205.006 453.962 205.666 451.48 206.985C448.998 208.304 446.982 210.322 445.431 213.039C443.957 215.755 443.22 219.248 443.22 223.516C443.22 229.881 444.81 234.576 447.99 237.603C451.247 240.552 455.087 242.027 459.507 242.027Z" fill="#EFE28B"/>
<path d="M532.406 253.785C528.141 253.785 524.534 252.931 521.587 251.224C518.717 249.439 516.507 246.994 514.955 243.89H514.257L513.21 252.388H502.624V168.567H514.955V202.096C516.352 199.767 518.562 197.71 521.587 195.925C524.612 194.14 528.218 193.248 532.406 193.248C537.215 193.248 541.519 194.412 545.32 196.74C549.12 198.991 552.106 202.367 554.278 206.869C556.527 211.37 557.652 216.919 557.652 223.516C557.652 230.113 556.527 235.663 554.278 240.164C552.106 244.666 549.12 248.081 545.32 250.409C541.519 252.66 537.215 253.785 532.406 253.785ZM529.847 242.027C534.268 242.027 537.913 240.513 540.783 237.487C543.73 234.382 545.204 229.764 545.204 223.633C545.204 217.424 543.73 212.767 540.783 209.663C537.913 206.558 534.268 205.006 529.847 205.006C525.426 205.006 521.742 206.558 518.795 209.663C515.925 212.69 514.49 217.307 514.49 223.516C514.49 229.648 515.925 234.266 518.795 237.37C521.742 240.475 525.426 242.027 529.847 242.027Z" fill="#EFE28B"/>
<path d="M599.721 253.785C594.137 253.785 589.212 252.543 584.946 250.06C580.68 247.499 577.345 243.967 574.941 239.466C572.536 234.964 571.334 229.725 571.334 223.749C571.334 217.696 572.498 212.379 574.824 207.8C577.229 203.221 580.564 199.651 584.83 197.09C589.173 194.528 594.175 193.248 599.837 193.248C605.421 193.248 610.23 194.528 614.263 197.09C618.296 199.573 621.399 202.91 623.57 207.101C625.819 211.293 626.944 215.91 626.944 220.955C626.944 221.731 626.944 222.585 626.944 223.516C626.944 224.37 626.905 225.34 626.828 226.427H583.433C583.821 231.782 585.566 235.857 588.669 238.651C591.771 241.367 595.416 242.725 599.605 242.725C603.25 242.725 606.119 241.988 608.214 240.513C610.385 238.961 611.975 236.866 612.983 234.227H625.432C624.036 239.737 621.127 244.394 616.706 248.197C612.285 251.922 606.624 253.785 599.721 253.785ZM599.721 203.958C595.92 203.958 592.547 205.122 589.599 207.451C586.652 209.701 584.752 212.884 583.899 216.997H614.612C614.302 213.116 612.79 209.973 610.075 207.567C607.36 205.161 603.909 203.958 599.721 203.958Z" fill="#EFE28B"/>
<path d="M642.837 252.388V241.678H656.914V209.197C656.914 206.636 655.673 205.355 653.191 205.355H644V194.645H657.845C661.025 194.645 663.623 195.576 665.639 197.439C667.656 199.224 668.664 201.746 668.664 205.006V206.403H669.246C670.099 202.057 671.922 198.797 674.714 196.624C677.583 194.373 681.733 193.248 687.162 193.248H696.12V206.287H683.556C678.98 206.287 675.451 207.878 672.969 211.06C670.487 214.242 669.246 218.045 669.246 222.469V241.678H687.162V252.388H642.837Z" fill="#EFE28B"/>
<defs>
<filter id="filter0_f_717_12855" x="0" y="0" width="764" height="348" filterUnits="userSpaceOnUse" color-interpolation-filters="sRGB">
<feFlood flood-opacity="0" result="BackgroundImageFix"/>
<feBlend mode="normal" in="SourceGraphic" in2="BackgroundImageFix" result="shape"/>
<feGaussianBlur stdDeviation="35" result="effect1_foregroundBlur_717_12855"/>
</filter>
</defs>
</svg>
