<svg width="660" height="511" viewBox="0 0 660 511" fill="none" xmlns="http://www.w3.org/2000/svg">
<path d="M355.552 444.812L404.113 469.874L421.344 509.425M421.149 465.958L421.344 509.425L406.463 507.858L375.525 504.334L335.579 423.274V389.988M404.113 469.874L406.463 507.858M404.113 469.874L366.703 462.255M406.463 507.858L381.007 499.635M355.552 444.812L366.703 462.255L406.463 507.858M381.007 499.635L375.525 504.334M381.007 499.635L335.579 423.274M335.579 423.274L355.552 444.812M335.579 423.274L357.119 421.316M355.552 444.812L362.601 433.455M335.579 389.988L351.636 406.044M335.579 389.988L372 415.442M335.579 389.988L377.483 400.17M335.579 389.988L361.426 387.247M160.133 352.787L169.532 376.674L184.414 380.59L224.751 389.988L255.689 397.037L335.579 389.988M351.636 406.044L357.119 421.316M351.636 406.044L360.643 412.309M357.119 421.316V431.497L362.601 433.455M357.119 421.316L360.643 412.309M421.149 465.958L408.813 464.783L396.672 458.909L362.601 433.455M362.601 433.455L372 415.442M362.601 433.455L404.113 446.378M396.672 458.909L404.113 446.378M404.113 446.378L443.275 467.133M404.113 446.378L393.931 415.442M443.275 467.133H433.485L421.149 465.958M443.275 467.133L438.967 441.287M558.804 437.371L539.614 449.511L514.942 462.255L497.711 467.133H443.275M443.275 467.133L497.711 453.427M372 415.442L360.643 412.309M372 415.442L377.483 400.17M372 415.442H393.931M377.483 400.17L393.931 415.442M377.483 400.17L427.61 386.464M377.483 400.17L378.266 400.057M393.931 415.442L438.967 441.287M393.931 415.442L431.918 392.338M387.273 384.506L427.61 386.464M387.273 384.506L361.426 387.247M387.273 384.506L427.61 378.632M427.61 386.464L431.918 392.338M427.61 386.464V378.632M427.61 386.464L446.017 387.247C446.113 387.192 446.209 387.136 446.307 387.08M431.918 392.338L438.967 441.287M431.918 392.338L378.266 400.057M431.918 392.338L477.346 394.688M477.346 394.688L448.366 408.393L438.967 441.287M438.967 441.287L497.711 453.427M378.266 400.057L361.426 387.247M255.689 397.037L285.844 349.263M255.689 397.037L231.408 384.506M285.844 349.263L427.61 378.632M335.579 349.263H285.844L231.408 384.506M427.61 378.632L366.703 337.906M427.61 378.632L335.579 349.263M427.61 378.632L412.729 342.997M427.61 378.632L502.802 354.353M366.703 337.906L335.579 349.263M366.703 337.906L335.579 301.88M335.579 349.263V301.88M335.579 349.263L250.598 332.816M335.579 301.88L250.598 332.816M335.579 301.88L327.747 280.734M250.598 332.816L160.133 352.787M250.598 332.816L231.408 384.506M250.598 332.816L228.275 308.928M250.598 332.816L254.514 294.831M160.133 352.787L193.812 367.775M160.133 352.787L196.162 305.796L228.275 308.928M160.133 352.787L228.275 308.928M160.133 352.787L173.448 297.572M160.133 352.787L139.377 283.866M114.705 276.034L124.887 310.886L128.412 320.676L160.133 352.787M169.532 376.674L193.812 367.775M184.414 380.59L231.408 384.506M224.751 389.988L231.408 384.506M231.408 384.506L193.812 367.775M228.275 308.928L173.448 297.572M228.275 308.928L254.514 294.831M173.448 297.572L139.377 283.866M173.448 297.572L284.277 263.503M139.377 283.866L128.412 320.676M139.377 283.866L114.705 267.811M139.377 283.866L203.211 230.61M139.377 283.866L284.277 263.503M114.705 267.811V276.034M114.705 267.811H113.139M114.705 267.811L149.951 251.756M21.8907 239.616L25.807 251.364L43.0383 280.734L72.8015 294.048L94.7323 299.139L114.705 276.034M114.705 276.034L87.6831 261.399M94.7323 299.139V270.552M113.139 267.811L94.7323 270.552L43.0383 280.734M43.0383 280.734L41.8634 231.393M43.0383 280.734L87.6831 261.399M113.139 267.811L75.1512 241.966M25.807 251.364L41.8634 231.393M42.255 105.299L14.45 133.886L1.13483 201.24L5.44266 209.463L21.8907 239.616M21.8907 239.616L41.8634 231.393M21.8907 239.616L12.1002 191.45M5.44266 209.463L12.1002 191.45M1.13483 201.24L12.1002 191.45M14.45 133.886L48.9127 177.744M14.45 133.886L12.1002 191.45M14.45 133.886L48.9127 135.844M14.45 133.886L55.5702 103.733M48.9127 177.744L96.2988 194.583M48.9127 177.744L12.1002 191.45M48.9127 177.744V135.844M48.9127 177.744L97.8653 168.738M48.9127 177.744L72.4099 150.724M77.1094 255.672L75.1512 241.966L96.2988 194.583M96.2988 194.583L41.8634 231.393M96.2988 194.583L12.1002 191.45M96.2988 194.583L159.35 190.667M87.6831 261.399L77.1094 255.672L41.8634 231.393M41.8634 231.393L12.1002 191.45M42.255 105.299L55.5702 103.733M237.674 17.3836L178.148 13.6662L125.67 26.5888L86.8999 50.0844L42.255 105.299M55.5702 103.733L48.9127 135.844M55.5702 103.733L75.1512 83.7616M55.5702 103.733L78.0884 121.072M48.9127 135.844L76.7177 128.229M86.8999 50.0844L75.1512 83.7616M86.8999 50.0844L93.1658 80.2372M86.8999 50.0844L178.148 13.6662M75.1512 83.7616L79.4591 113.914M79.4591 113.914L78.0884 121.072M79.4591 113.914L126.845 138.976M79.4591 113.914L125.67 102.95M79.4591 113.914L88.0747 107.099M72.4099 150.724L97.8653 168.738M78.0884 121.072L76.7177 128.229L72.4099 150.724M97.8653 168.738L159.35 190.667M97.8653 168.738L126.845 138.976M97.8653 168.738L151.517 132.711M159.35 190.667L184.414 128.229M159.35 190.667L155.042 236.483M159.35 190.667L207.519 225.519M327.747 280.734L254.514 294.831M327.747 280.734L357.902 231.784M254.514 294.831L284.277 263.503M254.514 294.831L357.902 231.784M284.277 263.503L203.211 230.61M284.277 263.503L357.902 231.784M284.277 263.503L307.383 209.463M284.277 263.503L270.57 237.658M203.211 230.61L155.042 236.483M203.211 230.61L171.49 241.966L149.951 251.756M203.211 230.61L270.57 237.658M234.933 178.136L207.519 225.519L203.211 230.61M203.211 230.61L285.844 209.463M155.042 236.483L149.951 251.756M357.902 231.784L307.383 209.463M357.902 231.784L415.079 259.196M357.902 231.784L418.212 234.917M323.831 209.272L307.383 209.463L294.068 219.662M270.57 237.658L294.068 219.662M207.519 225.519L184.414 128.229M225.534 126.445L184.414 128.229L151.517 132.711M184.414 128.229L234.933 178.136M126.845 138.976L151.517 132.711M126.845 138.976L125.67 102.95M151.517 132.711L148.384 70.4474M151.517 132.711L125.67 102.95M151.517 132.711L182.455 75.9297M151.517 132.711L231.017 84.9364M178.148 13.6662L93.1658 80.2372M178.148 13.6662L228.667 23.7177M178.148 13.6662L247.856 43.8189M247.856 43.8189L254.905 28.9383L228.667 23.7177M247.856 43.8189L231.017 84.9364M295.242 30.1131L265.479 38.7217L247.856 43.8189M93.1658 80.2372L166.399 48.5181L247.856 43.8189M231.017 84.9364L182.455 75.9297M231.017 84.9364L225.534 126.445M231.017 84.9364L234.933 178.136M231.017 84.9364L296.417 100.6M295.242 30.1131L262.738 55.5668L231.017 84.9364M182.455 75.9297L166.399 48.5181M166.399 48.5181L148.384 70.4474M88.0747 107.099L105.698 93.1598L131.936 72.4053L148.384 70.4474M148.384 70.4474L125.67 102.95M131.936 72.4053L125.67 102.95M93.1658 80.2372L105.698 93.1598M93.1658 80.2372L88.0747 107.099M225.534 126.445L234.933 178.136M234.933 178.136L260.78 165.996M234.933 178.136L296.417 100.6M234.933 178.136L294.068 138.585M294.068 219.662L285.844 209.463M285.844 209.463L260.78 165.996M260.78 165.996L294.068 138.585M260.78 165.996L312.865 189.1M296.417 100.6L314.823 63.3987M296.417 100.6L262.738 55.5668M296.417 100.6L348.111 62.2239M296.417 100.6L332.055 63.3987M296.417 100.6L294.068 138.585M295.242 30.1131L296.417 6.61745M295.242 30.1131L314.823 63.3987M295.242 30.1131L332.055 63.3987M382.182 25.8056L336.754 8.57543L296.417 6.61745M296.417 6.61745L337.538 61.0491M296.417 6.61745L335.579 47.7349M296.417 6.61745L359.077 34.0291M237.674 17.3836L260.78 1.13513L296.417 6.61745M336.754 8.57543L359.077 34.0291M491.053 52.0424L444.45 30.1131L402.938 21.498L382.182 25.8056M382.182 25.8056L359.077 34.0291M402.938 21.498L373.567 41.4694M373.567 41.4694L359.077 34.0291M373.567 41.4694L373.175 42.2526M359.077 34.0291L335.579 47.7349M359.077 34.0291L337.538 61.0491M335.579 47.7349L337.538 61.0491M373.175 42.2526L337.538 61.0491L332.055 63.3987M332.055 63.3987H314.823M332.055 63.3987L348.111 62.2239M373.175 42.2526L366.126 56.35M373.175 42.2526L444.45 30.1131M373.175 42.2526L451.499 47.7349M373.175 42.2526L402.938 52.0424M366.126 56.35L348.111 62.2239M366.126 56.35L390.406 74.3633M348.111 62.2239L294.068 138.585M348.111 62.2239L359.077 111.956M348.111 62.2239L390.406 74.3633M497.711 467.133V453.427M539.614 449.511L532.173 390.38M539.614 449.511L527.474 432.281M539.614 449.511L497.711 453.427M539.614 449.511L473.038 441.287M574.077 403.303L583.084 415.442L570.552 437.371H558.804M558.804 437.371L574.077 403.303M558.804 437.371L532.173 390.38M570.552 437.371L574.077 403.303M637.519 232.959L651.226 257.238L658.667 302.271L646.135 346.521L609.714 379.415L576.818 396.254L574.077 403.303M574.077 403.303L551.754 392.338M609.714 379.415L558.02 382.157M646.135 346.521L618.517 348.871M658.667 302.271L639.869 278.776M622.638 340.256L637.519 324.984L658.667 302.271M651.226 257.238L638.694 255.867M638.694 255.867L637.519 232.959V220.036L623.029 206.722M637.519 220.036H626.554M581.518 133.102L610.498 160.514L623.029 206.722M623.029 206.722L626.554 220.036M623.029 206.722L593.658 189.1M623.029 206.722L604.623 178.136M610.498 160.514L597.966 163.255M581.518 133.102L578.385 124.879M581.518 133.102L597.966 163.255M581.518 133.102L510.243 100.209M491.053 52.0424L501.627 56.35L526.299 70.0558L537.264 79.0624L578.385 101.775V124.879M578.385 124.879L510.243 100.209M578.385 124.879L518.467 87.6775M578.385 101.775L518.467 87.6775M501.627 56.35L518.467 87.6775M390.406 74.3633L420.953 68.4894L501.627 56.35M402.938 52.0424L458.549 55.5668L501.627 56.35M491.053 52.0424L451.499 47.7349M444.45 30.1131L451.499 47.7349M448.366 408.393L512.984 421.708M448.366 408.393L473.038 439.721M477.346 394.688L514.942 392.338M477.346 394.688L512.984 421.708M477.346 394.688L473.038 384.506M551.754 392.338L532.173 390.38L514.942 392.338M514.942 392.338L527.474 432.281M514.942 392.338L490.661 384.506M551.754 392.338L558.02 382.157M527.474 432.281L512.984 421.708M527.474 432.281L473.038 439.721M497.711 453.427L473.038 441.287V439.721M415.079 259.196L380.224 284.65L412.729 342.997M412.729 342.997L448.366 352.395L502.802 354.353M412.729 342.997L436.226 294.831M380.224 284.65L436.226 294.831M415.079 259.196L469.122 262.72M415.079 259.196L436.226 294.831M415.079 259.196L418.212 234.917M469.122 262.72L512.201 241.183M469.122 262.72L436.226 294.831M469.122 262.72L418.212 234.917M512.201 241.183L523.558 215.337M512.201 241.183L436.226 294.831M502.802 354.353L490.661 328.117L512.201 241.183M512.201 241.183L541.181 265.853M512.201 241.183L488.312 195.758M512.201 241.183L418.212 234.917M523.558 215.337L582.692 226.694M523.558 215.337L536.481 186.751M523.558 215.337L488.312 195.758M582.692 226.694H596.399M582.692 226.694L541.181 265.853M582.692 226.694L536.481 186.751M596.399 226.694L607.365 249.014M596.399 226.694L554.104 259.196M596.399 226.694L607.365 294.831M596.399 226.694L626.554 220.036M596.399 226.694L593.658 189.1M607.365 249.014L626.554 289.349M607.365 249.014L626.554 220.036M626.554 289.349L637.519 324.984M626.554 289.349L639.869 278.776M626.554 289.349V220.036M637.519 324.984L639.869 278.776M622.638 340.256L607.365 294.831M622.638 340.256H588.958M622.638 340.256L618.517 348.871M609.714 367.276L588.958 340.256M558.02 382.157L609.714 367.276L618.517 348.871M609.714 367.276L530.215 348.871M588.958 340.256L607.365 294.831M588.958 340.256L530.215 348.871M588.958 340.256L558.02 272.902M607.365 294.831L558.02 272.902M558.02 272.902L554.104 259.196M530.215 348.871L558.02 332.424V272.902M554.104 259.196L541.181 265.853M541.181 265.853L490.661 328.117M502.802 354.353L558.02 332.424M502.802 354.353L530.215 348.871M502.802 354.353C499.686 356.223 464.032 376.839 446.307 387.08M530.215 348.871L558.02 382.157M558.02 382.157L490.661 384.506M446.307 387.08L473.038 384.506H490.661M639.869 278.776L638.694 255.867M626.554 220.036L593.658 189.1M593.658 189.1L536.481 186.751M593.658 189.1L604.623 178.136M593.658 189.1L581.518 163.255M593.658 189.1L499.669 127.62M536.481 186.751L488.312 195.758M536.481 186.751L499.669 127.62M536.481 186.751L482.437 147.591M488.312 195.758L418.212 234.917M488.312 195.758L482.437 147.591M488.312 195.758L455.416 163.255M488.312 195.758L435.834 115.481M488.312 195.758L408.421 208.289M418.212 234.917L408.421 208.289M408.421 208.289L350.069 178.136M408.421 208.289L455.416 163.255M334.013 209.154L357.902 208.876L408.421 208.289M350.069 178.136L312.865 189.1M350.069 178.136L359.077 156.99M350.069 178.136L357.902 208.876M350.069 178.136L334.013 209.154M312.865 189.1L294.068 138.585M312.865 189.1L359.077 156.99M312.865 189.1L323.831 209.272M294.068 138.585L359.077 156.99M359.077 111.956V156.99M359.077 111.956L390.406 74.3633M359.077 111.956L449.15 80.6288M359.077 156.99L455.416 163.255M359.077 156.99L435.834 115.481M359.077 156.99L449.15 80.6288M455.416 163.255L435.834 115.481M435.834 115.481L482.437 147.591M435.834 115.481L499.669 127.62M435.834 115.481L449.15 80.6288M482.437 147.591L499.669 127.62M499.669 127.62L581.518 163.255M499.669 127.62L449.15 80.6288M581.518 163.255L501.627 98.2506L510.243 100.209M581.518 163.255L604.623 178.136M510.243 100.209L518.467 87.6775M518.467 87.6775L477.346 84.5448L449.15 80.6288M449.15 80.6288L420.953 68.4894M390.406 74.3633L402.938 52.0424M458.549 55.5668L451.499 47.7349M604.623 178.136L597.966 163.255M265.479 38.7217L260.78 1.13513M228.667 23.7177L237.674 17.3836M334.013 209.154L323.831 209.272" stroke="#FA0148" stroke-width="2.16293"/>
</svg>
